<?xml version="1.0" encoding="UTF-8"?><svg id="Layer_2" xmlns="http://www.w3.org/2000/svg" xmlns:xlink="http://www.w3.org/1999/xlink" viewBox="0 0 39.33 32"><defs><style>.cls-1{mask:url(#mask);}.cls-2{mask:url(#mask-4-4);}.cls-3{mask:url(#mask-2-2);}.cls-4{fill:#fff;}.cls-4,.cls-5{fill-rule:evenodd;}.cls-5{fill:#d6d6d6;}.cls-6{mask:url(#mask-3);}.cls-7{mask:url(#mask-5);}.cls-8{mask:url(#mask-7);}.cls-9{mask:url(#mask-6);}.cls-10{mask:url(#mask-1);}.cls-11{mask:url(#mask-9);}.cls-12{mask:url(#mask-8);}.cls-13{mask:url(#mask-10);}</style><mask id="mask" x="25.96" y="28.42" width="3.58" height="3.58" maskUnits="userSpaceOnUse"><g id="mask-2"><polygon id="path-1" class="cls-4" points="25.96 28.42 29.54 28.42 29.54 32 25.96 32 25.96 28.42"/></g></mask><mask id="mask-1" x="0" y="0" width="39.33" height="32" maskUnits="userSpaceOnUse"><g id="mask-4"><polygon id="path-3" class="cls-4" points="0 32 39.33 32 39.33 0 0 0 0 32"/></g></mask><mask id="mask-2-2" x="0" y="0" width="39.33" height="32" maskUnits="userSpaceOnUse"><g id="mask-4-2"><polygon id="path-3-2" class="cls-4" points="0 32 39.33 32 39.33 0 0 0 0 32"/></g></mask><mask id="mask-3" x="0" y="0" width="39.33" height="32" maskUnits="userSpaceOnUse"><g id="mask-4-3"><polygon id="path-3-3" class="cls-4" points="0 32 39.33 32 39.33 0 0 0 0 32"/></g></mask><mask id="mask-4-4" x="0" y="0" width="39.33" height="32" maskUnits="userSpaceOnUse"><g id="mask-4-5"><polygon id="path-3-4" class="cls-4" points="0 32 39.33 32 39.33 0 0 0 0 32"/></g></mask><mask id="mask-5" x="0" y="0" width="39.33" height="32" maskUnits="userSpaceOnUse"><g id="mask-4-6"><polygon id="path-3-5" class="cls-4" points="0 32 39.33 32 39.33 0 0 0 0 32"/></g></mask><mask id="mask-6" x="0" y="0" width="39.33" height="32" maskUnits="userSpaceOnUse"><g id="mask-4-7"><polygon id="path-3-6" class="cls-4" points="0 32 39.33 32 39.33 0 0 0 0 32"/></g></mask><mask id="mask-7" x="0" y="0" width="39.33" height="32" maskUnits="userSpaceOnUse"><g id="mask-4-8"><polygon id="path-3-7" class="cls-4" points="0 32 39.33 32 39.33 0 0 0 0 32"/></g></mask><mask id="mask-8" x="0" y="0" width="39.33" height="32" maskUnits="userSpaceOnUse"><g id="mask-4-9"><polygon id="path-3-8" class="cls-4" points="0 32 39.33 32 39.33 0 0 0 0 32"/></g></mask><mask id="mask-9" x="0" y="0" width="39.33" height="32" maskUnits="userSpaceOnUse"><g id="mask-4-10"><polygon id="path-3-9" class="cls-4" points="0 32 39.33 32 39.33 0 0 0 0 32"/></g></mask><mask id="mask-10" x="0" y="0" width="39.33" height="32" maskUnits="userSpaceOnUse"><g id="mask-4-11"><polygon id="path-3-10" class="cls-4" points="0 32 39.33 32 39.33 0 0 0 0 32"/></g></mask></defs><g id="Layer_1-2"><g id="FINAL"><g id="footer-desktop"><g id="NAV"><g id="footer-logo"><path id="Fill-1" class="cls-5" d="M24.17,12.05C24.17,5.4,18.76,0,12.09,0S0,5.4,0,12.05v12.05h12.09c6.68,0,12.09-5.4,12.09-12.05M17.26,10.19c.82,0,1.49.67,1.49,1.49s-.67,1.49-1.49,1.49-1.49-.67-1.49-1.49.67-1.49,1.49-1.49M17.26,14.17c.82,0,1.49.67,1.49,1.49s-.67,1.49-1.49,1.49-1.49-.67-1.49-1.49.67-1.49,1.49-1.49M5.77,13.66h0v-6.56h2.63v6.55h0c0,1.02.82,1.84,1.84,1.84s1.84-.82,1.84-1.84-.82-1.84-1.84-1.84h-.79v-2.62h.79c2.47,0,4.47,2,4.47,4.46s-2,4.46-4.47,4.46-4.47-2-4.47-4.46"/><polygon id="Fill-3" class="cls-5" points="24.17 30.89 23.35 28.52 22.39 28.52 23.68 31.91 24.67 31.91 25.96 28.52 25 28.52 24.17 30.89"/><g id="Group-7"><g class="cls-1"><path id="Fill-5" class="cls-5" d="M27.75,28.42c-.5,0-.92.17-1.27.52-.35.35-.52.77-.52,1.27s.17.92.52,1.27c.35.35.77.52,1.27.52s.93-.17,1.27-.52c.35-.35.52-.77.52-1.27s-.17-.92-.52-1.27c-.35-.35-.77-.52-1.27-.52M28.41,30.88c-.18.18-.4.26-.66.26s-.48-.09-.65-.26c-.17-.18-.26-.4-.26-.67s.09-.49.26-.67c.17-.18.39-.26.65-.26s.48.09.66.26c.18.18.26.4.26.67s-.09.49-.26.67"/></g></g><g class="cls-10"><polygon id="Fill-8" class="cls-5" points="30.01 31.91 30.88 31.91 30.88 28.52 30.01 28.52 30.01 31.91"/></g><g class="cls-3"><path id="Fill-10" class="cls-5" d="M33.68,31.01c-.14.08-.29.12-.47.12-.26,0-.48-.09-.65-.26-.17-.17-.26-.39-.26-.66s.09-.49.26-.67c.17-.17.39-.26.65-.26.17,0,.33.04.46.12.14.08.24.19.31.33l.75-.44c-.14-.27-.35-.48-.62-.64-.27-.16-.57-.24-.9-.24-.51,0-.94.17-1.28.51-.34.34-.51.77-.51,1.27s.17.93.51,1.27c.34.34.77.52,1.28.52.33,0,.63-.08.9-.24.27-.16.48-.37.63-.64l-.76-.43c-.07.14-.17.25-.31.33"/></g><g class="cls-6"><path id="Fill-11" class="cls-5" d="M36.85,28.42c-.52,0-.95.17-1.29.51-.33.34-.5.77-.5,1.28s.17.94.51,1.28c.34.34.79.51,1.35.51.65,0,1.14-.24,1.48-.72l-.7-.41c-.17.23-.42.34-.76.34-.52,0-.84-.21-.96-.64h2.55c.02-.13.03-.25.03-.36,0-.51-.16-.93-.48-1.27-.32-.34-.73-.51-1.23-.51h0ZM35.96,29.89c.05-.22.15-.38.3-.5.15-.12.35-.18.58-.18.2,0,.38.06.53.17.16.11.26.28.31.51h-1.73Z"/></g><g class="cls-2"><path id="Fill-12" class="cls-5" d="M1.97,28.41c-.47,0-.84.16-1.1.49v-1.75h-.87v4.74h.87v-.4c.26.33.62.49,1.1.49s.85-.17,1.17-.52c.32-.35.48-.77.48-1.27s-.16-.92-.48-1.27c-.32-.35-.71-.52-1.17-.52M2.48,30.89c-.18.18-.4.27-.67.27s-.49-.09-.67-.27c-.18-.18-.26-.41-.26-.69s.09-.51.26-.69c.18-.18.4-.27.67-.27s.5.09.67.27c.18.18.27.41.27.69s-.09.51-.27.69"/></g><g class="cls-7"><path id="Fill-13" class="cls-5" d="M6.92,28.91c-.26-.33-.63-.49-1.1-.49s-.84.17-1.16.52c-.32.35-.48.77-.48,1.27s.16.92.48,1.27c.32.35.71.52,1.16.52.47,0,.84-.16,1.1-.49v.4h.87v-3.39h-.87v.4ZM6.66,30.89c-.18.18-.4.27-.67.27s-.49-.09-.67-.27c-.18-.18-.26-.41-.26-.69s.09-.51.26-.69c.18-.18.4-.27.67-.27s.5.09.67.27c.18.18.27.41.27.69s-.09.51-.27.69h0Z"/></g><g class="cls-9"><polygon id="Fill-14" class="cls-5" points="11.04 29.09 11.04 28.51 8.5 28.51 8.5 29.33 9.86 29.33 8.43 31.31 8.43 31.9 11.1 31.9 11.1 31.08 9.6 31.08 11.04 29.09"/></g><g class="cls-8"><path id="Fill-15" class="cls-5" d="M14.24,28.91c-.26-.33-.63-.49-1.1-.49s-.84.17-1.16.52c-.32.35-.48.77-.48,1.27s.16.92.48,1.27c.32.35.71.52,1.16.52.47,0,.84-.16,1.1-.49v.4h.87v-3.39h-.87v.4ZM13.97,30.89c-.18.18-.4.27-.67.27s-.49-.09-.67-.27c-.18-.18-.26-.41-.26-.69s.09-.51.26-.69c.18-.18.4-.27.67-.27s.5.09.67.27c.18.18.27.41.27.69s-.09.51-.27.69h0Z"/></g><g class="cls-12"><path id="Fill-16" class="cls-5" d="M18.43,28.91c-.26-.33-.63-.49-1.1-.49s-.84.17-1.16.52c-.32.35-.48.77-.48,1.27s.16.92.48,1.27c.32.35.71.52,1.16.52.47,0,.84-.16,1.1-.49v.4h.87v-3.39h-.87v.4ZM18.17,30.89c-.18.18-.4.27-.67.27s-.49-.09-.67-.27c-.18-.18-.26-.41-.26-.69s.09-.51.26-.69c.18-.18.4-.27.67-.27s.5.09.67.27c.18.18.27.41.27.69s-.09.51-.27.69h0Z"/></g><g class="cls-11"><path id="Fill-17" class="cls-5" d="M20.88,29.09v-.58h-.87v3.39h.87v-1.62c0-.33.1-.56.32-.7.21-.14.45-.19.71-.16v-.98c-.23,0-.44.05-.63.16-.19.11-.32.27-.4.49"/></g><g class="cls-13"><path id="Fill-18" class="cls-5" d="M38.48,28.43c0-.24.19-.43.43-.43s.43.19.43.43-.19.43-.43.43-.43-.19-.43-.43h0ZM39.25,28.43c0-.2-.15-.35-.35-.35s-.34.15-.34.35.15.35.34.35.35-.15.35-.35h0ZM38.84,28.51v.18h-.11v-.5h.21c.1,0,.17.06.17.15,0,.07-.04.12-.09.15l.11.2h-.14l-.09-.18h-.05ZM38.89,28.42c.05,0,.09-.01.09-.07,0-.04-.03-.06-.09-.06h-.06v.14h.05Z"/></g></g></g></g></g></g></svg>