<?xml version="1.0" encoding="utf-8"?>
<!-- Generator: Adobe Illustrator 26.3.1, SVG Export Plug-In . SVG Version: 6.00 Build 0)  -->
<svg version="1.1" id="Layer_1" xmlns="http://www.w3.org/2000/svg" xmlns:xlink="http://www.w3.org/1999/xlink" x="0px" y="0px"
	 viewBox="0 0 23.7 23.7" style="enable-background:new 0 0 23.7 23.7;" xml:space="preserve">
<style type="text/css">
	.st0{clip-path:url(#SVGID_00000023265148445223936340000012353268043970317240_);}
	.st1{fill:#FFFFFF;}
</style>
<g>
	<defs>
		<rect id="SVGID_1_" width="23.7" height="23.7"/>
	</defs>
	<clipPath id="SVGID_00000138555944112645688970000004597228561856264125_">
		<use xlink:href="#SVGID_1_"  style="overflow:visible;"/>
	</clipPath>
	<g style="clip-path:url(#SVGID_00000138555944112645688970000004597228561856264125_);">
		<polygon class="st1" points="12.5,6.9 11.2,5.6 11.2,10.5 12.5,11.8 12.5,8.7 		"/>
		<path class="st1" d="M11.8,0C5.3,0,0,5.3,0,11.8c0,6.5,5.3,11.8,11.8,11.8s11.8-5.3,11.8-11.8C23.7,5.3,18.4,0,11.8,0z M15.6,8.7
			l-3.1,3.1l-1.3,1.3h0v3.6l1.3,1.3V15h3.1l-3.1,3.1l0,0l-2.2,2.2l-2.2-2.2V8.7l3.1-3.1l0,0l2.2-2.2l2.2,2.2V8.7z"/>
	</g>
</g>
</svg>
