<?xml version="1.0" encoding="UTF-8"?><svg id="Layer_2" xmlns="http://www.w3.org/2000/svg" viewBox="0 0 94.43 20"><defs><style>.cls-1{fill:#d6d6d6;}</style></defs><g id="Layer_1-2"><path class="cls-1" d="M6.12,9.58c-.09.42-.33,1.12-.49,1.48-.32.65-1.21,1.48-2.15,1.48-1.15,0-1.59-.57-1.59-1.16,0-.43.23-.76.67-.76.46,0,.53.38.53.52,0,.15-.05.36-.11.42-.05.05-.07.11-.07.21,0,.25.28.38.54.38.64,0,.99-.52,1.21-1.37.15-.58.37-1.55.83-3.26l-.07-.02c-.17.23-.88,1.23-2.54,1.23S0,7.53,0,5.4c0-1.59.73-2.93,1.64-3.86C2.33.85,3.4.1,5.12.1c1.28,0,1.94.42,2.18.62.16.12.27.15.33.15.15,0,.22-.12.3-.39.01-.06.05-.07.11-.06l.18.05s.09.04.07.1l-.7,2.48c-.03.07-.05.09-.14.07l-.2-.02c-.06-.01-.1-.05-.09-.12.21-1.06-.39-2.36-2-2.36-.79,0-1.68.27-2.54,1.41-.72.9-1.12,2.23-1.12,3.72,0,2.02,1.25,2.34,1.79,2.34,1.48,0,2.19-1.27,2.24-2,.04-.47-.1-.57-.43-.57h-.43c-.1,0-.11-.04-.09-.12l.05-.27c.01-.07.04-.1.14-.1.19,0,.62.04,1.7.04.84,0,1.13-.04,1.31-.04.09,0,.12.04.11.1l-.04.3c-.01.07-.04.1-.11.1h-.26c-.23,0-.41.1-.57.75l-.81,3.32Z"/><path class="cls-1" d="M15.76,6.42s.05.05.02.14l-.64,1.8c-.05.2-.12.22-.27.22-.1,0-.6-.01-1.31-.02-.7-.01-1.59-.01-2.44-.01h-1.6c-.38,0-.74.01-1.02.01-.27.01-.47.02-.54.02-.06,0-.09-.02-.07-.1l.05-.32s.04-.07.09-.07h.39c.49,0,.74-.25.86-.65l1.89-5.86c.21-.67-.23-.84-.6-.84h-.39c-.06,0-.1-.05-.07-.12l.07-.27c.02-.07.05-.1.15-.1.07,0,.37.01.72.01.36.01.76.02,1.06.02h.89c.89,0,1.57,0,2.06-.01.49-.01.79-.02.92-.02.2,0,.22.05.27.25l.37,1.65q.02.09-.05.14l-.15.07s-.07,0-.15-.07l-1.26-1.46c-.07-.07-.15-.1-.22-.1h-1.92l-1.04,3.19h1.06c.53,0,1.01-.06,1.46-1.02.02-.05.05-.07.1-.07l.22.07s.07.05.05.07c-.2.47-.59,2-.64,2.47-.02.07-.05.07-.1.07h-.22c-.07-.02-.07-.05-.07-.12,0-.89-.47-1.02-1.36-1.02h-.62l-1.21,3.74h2.76c.42,0,.76-.19,1.09-.47.27-.22.94-1.06,1.13-1.28.03-.05.07-.07.15-.02l.15.1Z"/><path class="cls-1" d="M25.17,3.7c0,2.47-1.75,5.03-4.54,5.03-.49,0-1.46-.07-2.22-.81-.76-.74-1.09-1.73-1.09-2.84C17.32,2.52,19.2.1,21.81.1c1.97,0,3.35,1.33,3.35,3.6M20.33,1.6c-1.01,1.13-1.75,2.96-1.75,4.32,0,1.53.81,2.24,1.83,2.24,1.8,0,3.4-2.76,3.43-5.43,0-1.23-.62-2.05-1.73-2.05-.74,0-1.33.39-1.78.91"/><path class="cls-1" d="M27.64,7.2c-.21.67-.07.89.27.89h.52c.07,0,.1.05.07.1l-.02.3c-.02.07-.07.1-.15.1-.15,0-.69-.04-1.75-.04-.86,0-1.33.04-1.48.04-.07,0-.1-.05-.07-.12l.05-.27c0-.07.03-.1.12-.1h.32c.3,0,.52-.27.62-.58l1.97-6.15c.12-.39.05-.62-.37-.62h-.42c-.1,0-.12-.02-.1-.1l.05-.26c.02-.07.05-.1.17-.1,1.28,0,2.56-.04,2.91-.04,1.06,0,2.91.09,2.91,1.79,0,1.21-1.31,2.19-2.91,2.37v.05c.39.1.59.47.72.72.07.12.91,1.87,1.12,2.21.33.52.63.72,1.07.72h.32c.07,0,.1.05.07.12l-.02.25c-.02.07-.05.12-.12.12-.12,0-.32-.04-.99-.04-.72,0-.94.04-1.13.04-.12,0-.17-.12-.35-.41-.17-.3-1.26-2.71-1.41-3.01-.3-.68-.84-.6-1.17-.6l-.83,2.64ZM28.6,4.13c.49,0,1.13.05,1.97-.3.64-.27,1.21-.96,1.21-1.85,0-.52-.37-1.32-1.58-1.32-.22,0-.37,0-.52.02l-1.09,3.44Z"/><path class="cls-1" d="M39.63,6.18c.1-.49-.1-.59-.44-.59h-.41c-.1,0-.12-.06-.11-.14l.05-.26c.01-.07.05-.1.12-.1.2,0,.62.04,1.63.04s1.28-.04,1.46-.04c.07,0,.11.05.1.15l-.02.25c-.01.07-.05.1-.12.1h-.2c-.3,0-.52.1-.59.42l-.42,1.89c-.04.15-.1.2-.25.27-.35.15-1.41.57-2.47.57-2.29,0-3.68-1.55-3.68-3.35,0-2.98,2.42-5.28,5.18-5.28,1.06,0,1.75.42,2,.62.15.12.25.15.3.15.15,0,.22-.12.34-.39,0-.05.05-.07.12-.05l.17.05s.07.03.07.1l-.72,2.47c-.02.07-.05.1-.12.07h-.25c-.07,0-.1-.05-.07-.15.15-1.06-.37-2.36-1.95-2.36-1.9,0-3.53,2.28-3.53,4.91,0,1.9,1.13,2.67,2.07,2.67.62,0,1.04-.16,1.21-.28.12-.07.2-.25.25-.44l.27-1.28Z"/><path class="cls-1" d="M49.8,6.42s.05.05.02.14l-.64,1.8c-.05.2-.12.22-.27.22-.1,0-.6-.01-1.31-.02-.7-.01-1.59-.01-2.44-.01h-1.6c-.38,0-.74.01-1.02.01-.27.01-.47.02-.54.02-.06,0-.09-.02-.07-.1l.05-.32s.04-.07.09-.07h.39c.49,0,.74-.25.86-.65l1.89-5.86c.21-.67-.23-.84-.6-.84h-.39c-.06,0-.1-.05-.07-.12l.07-.27c.02-.07.05-.1.15-.1.07,0,.37.01.72.01.36.01.76.02,1.06.02h.89c.89,0,1.57,0,2.06-.01.49-.01.79-.02.92-.02.2,0,.22.05.27.25l.37,1.65q.03.09-.05.14l-.15.07s-.07,0-.15-.07l-1.26-1.46c-.07-.07-.15-.1-.22-.1h-1.92l-1.04,3.19h1.06c.53,0,1.01-.06,1.45-1.02.02-.05.05-.07.1-.07l.22.07s.07.05.05.07c-.2.47-.59,2-.64,2.47-.02.07-.05.07-.1.07h-.22c-.07-.02-.07-.05-.07-.12,0-.89-.47-1.02-1.36-1.02h-.62l-1.21,3.74h2.76c.42,0,.76-.19,1.09-.47.27-.22.94-1.06,1.13-1.28.03-.05.07-.07.15-.02l.15.1Z"/><path class="cls-1" d="M57.63.28c1.11,0,1.55-.1,1.78-.22.05-.02.07-.05.12-.05s.1.02.1.1c-.03.2-.15,2-.12,2.49,0,.07-.02.1-.1.11l-.2.04c-.07,0-.12-.05-.17-.2-.1-.39-.32-1.16-.49-1.48-.27-.21-1.16-.32-1.73-.32h-.25l-1.95,6.29c-.25.78-.12,1.05.52,1.05h.49c.06,0,.09.05.07.12l-.05.25c-.01.09-.06.12-.15.12-.17,0-.67-.04-1.83-.04s-1.86.04-1.98.04c-.09,0-.12-.05-.11-.12l.03-.27c.01-.07.05-.1.15-.1h.32c.69,0,.93-.32,1.21-1.25l1.9-6.09h-.32c-1.13,0-1.68.06-1.96.27-.43.32-1.07,1.04-1.37,1.38-.05.05-.1.05-.15.05l-.2-.12s-.05-.07-.02-.12c.15-.27.91-2,.94-2.07.03-.07.05-.12.12-.12.05,0,.1.02.2.1.25.07.84.17,2.12.17h3.08Z"/><path class="cls-1" d="M67.49,3.7c0,2.47-1.75,5.03-4.54,5.03-.49,0-1.46-.07-2.22-.81-.76-.74-1.09-1.73-1.09-2.84,0-2.56,1.87-4.98,4.49-4.98,1.97,0,3.35,1.33,3.35,3.6M62.66,1.6c-1.01,1.13-1.75,2.96-1.75,4.32,0,1.53.81,2.24,1.82,2.24,1.8,0,3.4-2.76,3.43-5.43,0-1.23-.62-2.05-1.73-2.05-.74,0-1.33.39-1.78.91"/><path class="cls-1" d="M70.09,6.4c-.02.15.07.2.2.05.07-.07,2.81-4.02,2.86-4.09.3-.44.44-.94.44-1.2s-.1-.42-.32-.42h-.17c-.07,0-.1-.02-.1-.09l.05-.33s.05-.07.15-.07c.12,0,.44.04,1.21.04.72,0,1.03-.04,1.18-.04.1,0,.12.02.11.1l-.04.3c-.02.07-.05.1-.15.1h-.2c-.22,0-.35.15-.39.58l-.62,5.13c-.02.22.05.25.17.1.25-.27,1.46-2.27,1.7-2.69.59-.99,1.13-2.15,1.25-2.48.11-.32.09-.64-.28-.64h-.2c-.07,0-.12-.02-.1-.11l.05-.26c0-.1.05-.12.12-.12.17,0,.47.04,1.11.04.74,0,1.06-.04,1.23-.04.1,0,.14.02.12.09l-.05.31c-.03.07-.05.1-.1.1h-.22c-.22,0-.44.07-.64.33-.12.17-1.97,3.23-2.27,3.72-.34.57-1.96,2.95-2.49,3.6-.16.2-.31.39-.51.39s-.25-.17-.22-.44l.36-5.18c.02-.15-.07-.15-.17-.02-.12.17-3.45,4.8-3.91,5.33-.15.17-.27.32-.47.32-.16,0-.22-.17-.17-.52l.88-6.89c.05-.42,0-.64-.27-.64h-.3c-.1,0-.12-.02-.11-.11l.04-.28c.03-.07.05-.1.15-.1.12,0,.62.04,1.43.04.76,0,1.23-.04,1.38-.04.12,0,.15.02.12.11l-.05.28s-.02.1-.12.1h-.2c-.39,0-.57.15-.65.65l-.83,5.01Z"/><path class="cls-1" d="M76.96,7.31c0-.67.43-1.01.77-1.01s.6.17.6.59c0,.36-.34.53-.41.8-.05.23.14.51.83.51,1.18,0,2.18-.94,2.73-1.68.88-1.22,1.85-3.91,1.85-5.13,0-.28-.15-.37-.42-.37-.75,0-1.46-.01-2.16.21-.51.15-.99.48-.99.78,0,.15.09.42.34.49.38.06.56.28.56.55s-.23.53-.62.53c-.43,0-.8-.47-.8-1.06,0-.63.27-1.29.85-1.71.89-.63,2.12-.53,4.34-.53.23,0,.31.09.36.28.42,1.89,1.57,5.04,2.23,6.12.09.15.15.04.2-.2.54-2.44,1.33-4.82,2.7-5.87.63-.49,1.22-.62,1.73-.62.74,0,1.08.43,1.08.84,0,.35-.3.62-.6.62-.26,0-.44-.2-.54-.35-.06-.15-.27-.28-.44-.28-.23,0-.48.05-.88.33-.85.62-1.81,1.92-2.6,5.46-.2.9.01,1.16.14,1.37.63,1.07,2.43,3.35,4.57,3.35.63,0,1.07-.27,1.17-.68.12-.54.28-.79.53-.79.27,0,.36.23.36.42,0,.16-.15.53-.37.76-.21.23-.86.93-2.28.93-2.5,0-4.12-1.99-4.85-2.95-1.39-1.84-2.51-4.56-3.12-7-.02-.11-.1-.12-.14.07-.28,1.57-.81,3.17-1.44,4.24-.64,1.13-1.75,2.52-3.55,2.52-.88,0-1.73-.54-1.73-1.55"/><path class="cls-1" d="M15.94,16.3c-.68,2.18-1.65,3.64-3.92,3.64-1.6,0-2.79-.74-2.79-2.26,0-.52.17-1.28.25-1.55l1.06-3.42c.17-.57,0-.76-.35-.76h-.44s-.1-.02-.07-.1l.05-.3c.02-.07.05-.1.17-.1.15,0,.57.04,1.7.04.99,0,1.41-.04,1.53-.04.1,0,.12.05.12.15l-.05.25s-.05.1-.12.1h-.34c-.25,0-.56.05-.74.65l-1.01,3.31c-.07.27-.37,1.18-.37,1.71,0,1.5,1.31,1.65,1.68,1.65.57,0,1.21-.2,1.6-.54.57-.49.99-1.16,1.38-2.5l.89-3.16c.23-.83.1-1.12-.3-1.12h-.39c-.1,0-.12-.05-.11-.1l.04-.27c.02-.07.05-.12.17-.12.15,0,.62.04,1.41.04.72,0,.99-.04,1.11-.04s.15.05.12.15l-.05.25s-.03.1-.12.1h-.2c-.39,0-.64.36-.84.97l-1.06,3.38Z"/><path class="cls-1" d="M20.28,13.17c-.07-.12-.17-.12-.2.02l-1.23,4.12c-.42,1.41-.37,1.99.15,1.99h.47c.1,0,.12.05.12.12l-.05.26c-.03.09-.03.11-.15.11s-.64-.04-1.48-.04-1.26.04-1.41.04c-.07,0-.1-.05-.09-.14l.04-.26s.05-.1.12-.1h.27c.57,0,.86-.42,1.23-1.52l1.5-4.76c.23-.73-.02-1.07-.54-1.07h-.47c-.1,0-.12-.05-.1-.15l.05-.22c.02-.07.05-.12.15-.12.15,0,.64.04,2.1.04.22,0,.3.15.37.32l2.74,5.7c.1.15.15.12.25-.17l1.31-4c.32-1,.22-1.39-.2-1.39h-.37c-.12,0-.15-.02-.12-.12l.03-.27s.05-.1.12-.1c.15,0,.54.04,1.41.04.64,0,.89-.04,1.06-.04.12,0,.15.07.12.17l-.05.22c0,.07-.02.1-.1.1h-.32c-.3,0-.54.3-.79,1l-2.27,6.49c-.07.2-.17.3-.25.32-.12,0-.25-.07-.32-.25l-3.11-6.34Z"/><path class="cls-1" d="M28.95,12.76c.17-.62-.02-.81-.34-.81h-.57c-.1,0-.12-.02-.12-.1l.07-.32s.05-.07.15-.07c.15,0,.81.04,1.8.04,1.06,0,1.58-.04,1.75-.04.12,0,.17.05.15.15l-.07.25s-.03.1-.12.1h-.32c-.52,0-.8.12-.99.83l-1.53,5.68c-.16.59.02.84.54.84h.44c.07,0,.1.05.07.12l-.02.25c-.02.1-.02.12-.15.12-.15,0-.72-.04-1.97-.04-1.04,0-1.68.04-1.82.04-.07,0-.1-.05-.1-.12l.07-.27c0-.07.02-.1.1-.1h.47c.72,0,.79-.25.96-.88l1.55-5.66Z"/><path class="cls-1" d="M37.28,12.97c.44-.59.49-1.02.15-1.02h-.25c-.12,0-.15-.05-.14-.12l.06-.27c0-.07.02-.1.15-.1.17,0,.59.04,1.26.04.72,0,1.04-.04,1.18-.04.12,0,.15.05.14.11l-.04.26c-.03.07-.05.12-.12.12h-.27c-.42,0-1.05.62-1.53,1.22l-5.27,6.61c-.07.1-.22.22-.39.22-.2,0-.22-.17-.17-.47l.97-6.92c.05-.37-.07-.67-.47-.67h-.39c-.1,0-.15-.02-.12-.11l.07-.26c.02-.1.02-.12.12-.12.17,0,.69.04,1.75.04.89,0,1.41-.04,1.55-.04.12,0,.15.02.12.11l-.04.28c-.01.07-.04.1-.14.1h-.35c-.39,0-.62.15-.68.51l-.85,4.93c-.05.32.1.35.27.12l3.4-4.54Z"/><path class="cls-1" d="M45.66,17.63s.05.05.02.14l-.64,1.8c-.05.2-.12.22-.27.22-.1,0-.6-.01-1.31-.03-.7-.01-1.59-.01-2.44-.01h-1.6c-.38,0-.74.01-1.02.01-.27.01-.47.03-.54.03-.06,0-.09-.03-.07-.1l.05-.32s.04-.07.09-.07h.39c.49,0,.74-.25.86-.65l1.89-5.86c.21-.67-.23-.84-.6-.84h-.39c-.06,0-.1-.05-.07-.12l.07-.27c.02-.07.05-.1.15-.1.07,0,.37.01.72.01.36.01.76.02,1.06.02h.89c.89,0,1.57,0,2.06-.01.49-.01.79-.02.92-.02.2,0,.22.05.27.25l.37,1.65q.03.09-.05.14l-.15.07s-.07,0-.15-.07l-1.26-1.46c-.07-.07-.15-.1-.22-.1h-1.92l-1.04,3.19h1.06c.53,0,1.01-.06,1.46-1.02.02-.05.05-.07.1-.07l.22.07s.07.05.05.07c-.2.47-.59,2-.64,2.47-.02.07-.05.07-.1.07h-.22c-.07-.02-.07-.05-.07-.12,0-.89-.47-1.02-1.36-1.02h-.62l-1.21,3.74h2.76c.42,0,.76-.19,1.09-.47.27-.22.94-1.06,1.13-1.28.03-.05.07-.07.15-.02l.15.1Z"/><path class="cls-1" d="M48.53,18.41c-.21.67-.07.89.27.89h.52c.07,0,.1.05.07.1l-.02.3c-.02.07-.07.1-.15.1-.15,0-.69-.04-1.75-.04-.86,0-1.33.04-1.48.04-.07,0-.1-.05-.07-.12l.05-.27c0-.07.03-.1.12-.1h.32c.3,0,.52-.27.62-.58l1.97-6.15c.12-.39.05-.62-.37-.62h-.42c-.1,0-.12-.02-.1-.1l.05-.26c.02-.07.05-.1.17-.1,1.28,0,2.56-.04,2.91-.04,1.06,0,2.91.09,2.91,1.79,0,1.21-1.31,2.19-2.91,2.37v.05c.39.1.59.47.72.72.07.12.91,1.87,1.12,2.21.33.52.63.72,1.07.72h.32c.07,0,.1.05.07.12l-.02.25c-.03.07-.05.12-.12.12-.12,0-.32-.04-.99-.04-.72,0-.94.04-1.13.04-.12,0-.17-.12-.34-.41-.17-.3-1.26-2.71-1.41-3.01-.3-.68-.84-.6-1.17-.6l-.83,2.64ZM49.49,15.34c.49,0,1.13.05,1.97-.3.64-.27,1.21-.96,1.21-1.85,0-.52-.37-1.32-1.58-1.32-.22,0-.37,0-.52.02l-1.09,3.44Z"/><path class="cls-1" d="M60.62,13.9s-.05.07-.1.07h-.22c-.1,0-.12-.05-.12-.12.07-.49-.07-1.97-1.33-1.97-.72,0-1.11.67-1.11,1.2,0,.86.54,1.26,1.11,1.83.57.57,1.38,1.26,1.38,2.63,0,1.58-1.13,2.42-2.42,2.42-.79,0-1.36-.47-1.75-.91-.12-.12-.25-.1-.32-.02-.07.1-.2.3-.3.47-.02.05-.05.07-.12.05l-.15-.07q-.07-.02-.05-.12l.91-2.69s.05-.05.12-.05l.2.05s.07.05.07.12c-.35,1.78.62,2.61,1.38,2.61s1.33-.62,1.33-1.29c0-.79-.62-1.26-1.16-1.85-.76-.84-1.41-1.48-1.41-2.75,0-.89.69-2.17,2.29-2.17.67,0,1.26.42,1.46.57.05.02.1.05.17.05s.15-.17.2-.42c0-.05.02-.05.12-.05l.15.02c.07,0,.1.02.1.07l-.44,2.34Z"/><path class="cls-1" d="M63.63,12.76c.17-.62-.02-.81-.35-.81h-.57c-.1,0-.12-.02-.12-.1l.07-.32s.05-.07.15-.07c.15,0,.81.04,1.8.04,1.06,0,1.58-.04,1.75-.04.12,0,.17.05.15.15l-.07.25s-.02.1-.12.1h-.32c-.52,0-.8.12-.99.83l-1.53,5.68c-.16.59.02.84.54.84h.44c.07,0,.1.05.07.12l-.02.25c-.02.1-.02.12-.15.12-.15,0-.71-.04-1.97-.04-1.04,0-1.68.04-1.82.04-.07,0-.1-.05-.1-.12l.07-.27c0-.07.02-.1.1-.1h.47c.72,0,.79-.25.96-.88l1.55-5.66Z"/><path class="cls-1" d="M72.8,11.49c1.11,0,1.55-.1,1.78-.22.05-.02.07-.05.12-.05s.1.02.1.1c-.02.2-.15,2-.12,2.49,0,.07-.02.1-.1.11l-.2.04c-.07,0-.12-.05-.17-.2-.1-.39-.32-1.16-.49-1.48-.27-.21-1.16-.32-1.73-.32h-.25l-1.95,6.29c-.25.78-.12,1.05.52,1.05h.49c.06,0,.09.05.07.12l-.05.25c-.01.09-.06.12-.15.12-.17,0-.67-.04-1.82-.04s-1.86.04-1.99.04c-.09,0-.12-.05-.11-.12l.02-.27c.01-.07.05-.1.15-.1h.32c.69,0,.92-.32,1.21-1.25l1.9-6.09h-.32c-1.14,0-1.68.06-1.96.27-.43.32-1.07,1.04-1.37,1.38-.05.05-.1.05-.15.05l-.2-.12s-.05-.07-.03-.12c.15-.27.91-2,.94-2.07.02-.07.05-.12.12-.12.05,0,.1.02.2.1.25.07.84.17,2.12.17h3.08Z"/><path class="cls-1" d="M78.45,18.61c-.14.64.02.69.44.69h.27c.07,0,.1.05.1.1l-.05.27c0,.07-.02.12-.12.12-.2,0-.59-.04-1.58-.04-1.11,0-1.48.04-1.63.04-.07,0-.1-.02-.1-.12l.05-.27s.02-.1.12-.1h.27c.57,0,.74-.27.81-.63l.4-1.83c.05-.17.02-.49-.03-.64l-1.28-3.79c-.1-.3-.35-.47-.77-.47h-.27c-.07,0-.1-.02-.1-.1l.05-.3c.03-.07.05-.1.12-.1.17,0,.49.04,1.48.04,1.06,0,1.48-.04,1.63-.04.1,0,.12.02.12.1l-.02.3c-.03.07-.05.1-.12.1h-.32c-.39,0-.39.3-.32.54l.99,3.32c.05.2.15.2.25.03.17-.27,1.92-2.86,2.05-3.23.16-.47,0-.65-.42-.65h-.27c-.07,0-.1-.05-.07-.12l.03-.27c0-.07.03-.1.15-.1.17,0,.64.04,1.33.04.76,0,1.13-.04,1.31-.04.1,0,.12.05.12.12l-.05.25c0,.1-.02.12-.1.12h-.22c-.42,0-.67.2-.91.53-.2.27-2.44,3.4-2.61,3.7-.17.27-.3.52-.42,1.06l-.3,1.37Z"/></g></svg>