<?xml version="1.0" encoding="UTF-8"?><svg id="Layer_2" xmlns="http://www.w3.org/2000/svg" viewBox="0 0 65.7 18"><defs><style>.cls-1{fill:#d6d6d6;fill-rule:evenodd;}</style></defs><g id="Layer_1-2"><path class="cls-1" d="M7.91,0c-.73.02-1.46.17-2.16.42C3.06,1.55,1.18,4,.33,6.95c-.14.55-.26,1.11-.32,1.68,0,.02-.04.58.04.43.08-.13.12-.33.16-.48.41-1.38.91-2.64,1.68-3.84C3.73,2.03,6.68.29,9.8,1.25c.58.2,1.1.48,1.62.82.1.07.82.64.66.12-.13-.41-.47-.76-.77-1.04C10.32.31,9.12-.03,7.91,0h0ZM30.71,2.71c-.42,0-.74.14-.96.44-.23.29-.34.71-.34,1.28v4.07c-.52-.57-1.05-.98-1.6-1.26-.37-.18-.78-.3-1.19-.36-.27-.04-.55-.05-.82-.05-1.37,0-2.48.48-3.32,1.45-.84.96-1.26,2.3-1.26,4.03,0,.81.11,1.57.31,2.27.21.7.53,1.3.94,1.82.39.5.89.91,1.46,1.2.56.28,1.17.42,1.83.42.29,0,.58-.03.86-.08.18-.03.35-.07.52-.12.42-.14.81-.35,1.17-.61.37-.27.72-.62,1.1-1.04v.27c0,.51.13.89.37,1.17.24.27.56.41.94.41s.69-.13.93-.39c.24-.27.36-.66.36-1.19V4.28c0-.51-.11-.9-.33-1.17-.23-.27-.55-.4-.95-.4h0ZM64.4,2.71c-.42,0-.74.14-.96.44-.22.29-.34.71-.34,1.28v4.07c-.52-.57-1.05-.98-1.6-1.26-.34-.17-.74-.29-1.19-.36-.27-.04-.55-.05-.82-.05-1.37,0-2.47.48-3.32,1.45-.84.96-1.26,2.3-1.26,4.03,0,.81.11,1.57.32,2.27s.52,1.3.93,1.82c.39.5.89.91,1.46,1.2.56.28,1.17.42,1.83.42.3,0,.59-.03.86-.08.18-.03.35-.07.52-.12.42-.14.81-.35,1.17-.61.37-.27.73-.62,1.1-1.04v.27c0,.51.12.89.37,1.17.25.27.56.41.94.41s.7-.13.94-.39c.24-.27.37-.66.37-1.19V4.28c0-.51-.12-.9-.34-1.17-.23-.27-.54-.4-.96-.4h0ZM7.21,3.45c-.38,0-.75.08-1.09.25-1.12.56-1.56,1.93-.99,3.04.56,1.12,1.93,1.56,3.04.99,1.12-.56,1.56-1.93.99-3.04-.37-.74-1.13-1.22-1.96-1.24h0ZM38.31,6.79c-.79,0-1.52.14-2.18.39-.68.27-1.25.65-1.71,1.14-.46.5-.82,1.1-1.06,1.79-.24.7-.37,1.46-.37,2.27,0,1.73.5,3.09,1.48,4.1.93.96,2.21,1.46,3.84,1.51.1,0,.19,0,.29,0,.78,0,1.46-.1,2.05-.3.6-.21,1.09-.46,1.48-.76.4-.31.69-.63.88-.96.2-.33.29-.62.29-.87,0-.28-.09-.5-.26-.65-.18-.15-.41-.23-.69-.23s-.46.06-.61.18c-.27.26-.55.52-.84.77-.22.19-.46.36-.71.53-.26.16-.52.29-.79.36-.27.08-.57.12-.9.12-.07,0-.14,0-.21,0-.41-.03-.79-.14-1.14-.36-.4-.24-.73-.6-.97-1.06-.25-.48-.38-1.04-.38-1.66h5.39c.71,0,1.28-.11,1.68-.3.39-.21.59-.66.59-1.35,0-.75-.19-1.48-.57-2.2-.38-.71-.96-1.3-1.73-1.76-.77-.45-1.7-.68-2.77-.68h-.09ZM49.33,6.79c-.79,0-1.53.14-2.18.39-.68.27-1.25.65-1.72,1.14-.46.5-.81,1.1-1.05,1.79-.24.7-.37,1.46-.37,2.27,0,1.73.49,3.09,1.47,4.1.93.96,2.21,1.46,3.85,1.51.09,0,.19,0,.29,0,.77,0,1.46-.1,2.05-.3.6-.21,1.09-.46,1.48-.76.39-.31.69-.63.88-.96.2-.33.29-.62.29-.87,0-.28-.09-.5-.27-.65-.17-.15-.4-.23-.69-.23-.26,0-.46.06-.6.18-.35.32-.62.58-.84.77-.23.19-.47.36-.71.53-.25.16-.52.29-.78.36-.28.08-.57.12-.9.12-.07,0-.14,0-.21,0-.41-.03-.79-.14-1.14-.36-.41-.24-.73-.6-.98-1.06-.24-.48-.37-1.04-.38-1.66h5.38c.72,0,1.29-.11,1.68-.3.4-.21.6-.66.6-1.35,0-.75-.2-1.48-.58-2.2-.38-.71-.96-1.3-1.73-1.76-.77-.45-1.69-.68-2.77-.68h-.08ZM11.84,6.81c-.4,0-.71.13-.94.39-.23.25-.35.64-.35,1.17v7.95c0,.54.12.96.38,1.24.26.29.58.44.98.44s.74-.14,1-.42c.26-.29.39-.7.39-1.26v-3.44c0-1.13.06-1.89.2-2.3.19-.52.49-.92.89-1.21.4-.29.85-.44,1.34-.44.75,0,1.26.24,1.51.72.25.48.38,1.18.38,2.09v4.58c0,.54.12.96.38,1.24.26.29.59.44,1,.44s.73-.14.98-.43c.25-.28.38-.7.38-1.25v-5.11c0-.61-.03-1.11-.08-1.49-.05-.39-.17-.76-.36-1.1-.29-.58-.71-1.03-1.28-1.34s-1.22-.47-1.95-.47-1.41.15-1.99.45c-.57.3-1.1.77-1.59,1.41v-.34c0-.32-.05-.6-.17-.83-.12-.23-.28-.4-.47-.52-.2-.12-.41-.17-.65-.17h0ZM38.3,8.71h0c.71,0,1.29.23,1.73.7.45.46.7,1.17.77,2.12h-5c.1-.93.37-1.63.8-2.11.44-.47,1-.71,1.69-.71h0ZM49.32,8.71h0c.71,0,1.29.23,1.73.7.44.46.7,1.17.76,2.12h-4.99c.09-.93.36-1.63.8-2.11.44-.47,1-.71,1.69-.71h0ZM26.59,8.87h.03c.47,0,.91.14,1.3.42.41.28.73.68.97,1.2.23.53.36,1.16.36,1.89,0,.79-.12,1.44-.36,1.95-.24.52-.56.9-.96,1.15-.39.25-.84.38-1.31.38h0c-.48,0-.92-.13-1.32-.39-.41-.27-.72-.66-.95-1.18-.23-.53-.35-1.16-.35-1.91,0-.71.11-1.33.32-1.86.22-.54.53-.95.93-1.23.39-.29.85-.43,1.35-.43h0ZM60.28,8.87h.03c.47,0,.91.14,1.31.42.4.28.72.68.96,1.2.24.53.36,1.16.36,1.89,0,.79-.12,1.44-.36,1.95-.24.52-.56.9-.96,1.15-.4.25-.85.38-1.32.38h0c-.48,0-.92-.13-1.32-.39-.4-.27-.72-.66-.95-1.18-.23-.53-.35-1.16-.35-1.91,0-.71.11-1.33.33-1.86.21-.54.53-.95.92-1.23.4-.29.85-.43,1.36-.43h0ZM8.73,8.96c-.71.43-1.55.67-2.45.67-.19,0-.37,0-.55-.03v6.57c0,.61.14,1.06.42,1.37.29.31.63.46,1.07.46s.81-.15,1.09-.46c.28-.3.42-.76.42-1.37v-7.21h0Z"/></g></svg>