<?xml version="1.0" encoding="UTF-8"?><svg id="Layer_2" xmlns="http://www.w3.org/2000/svg" viewBox="0 0 40.96 30"><defs><style>.cls-1{fill:#d6d6d6;}</style></defs><g id="Layer_1-2"><path class="cls-1" d="M22.3,0l-3.61.08-.35,1.15-2.17.05-.15.43c-6.17.19-11.97,3.3-13.86,4.77l12.32-.47-.3.99,3.18-.07-5.06,23.09,4.39-1.4,4.23-21.76,2.41-.05.3-1.1,15.69-.43c-2.93-1.77-10.37-3.71-14.56-3.66l.14-.52-2.82.06.22-1.15Z"/><path class="cls-1" d="M1.07,9.18l-1.07,4.12,2.39-.11L.33,21.32c-.9,4.19.75,7.03,3.4,7.25,2.33.2,6.31-.63,7.49-4.32,1.18-3.64,3.96-15.59,3.96-15.59l-4.68.17-2.84,12.23c-.46,1.69-1.28,2.57-1.89,2.36-.61-.21-.69-.98-.24-2.91s2.78-11.63,2.78-11.63l-7.25.28Z"/><polygon class="cls-1" points="22.37 8.42 21.63 12.4 22.8 12.36 21.39 19.54 20.2 19.73 19.16 25.06 29.84 22.28 30.55 18.36 25.49 18.99 25.7 17.57 28.13 17.28 28.84 13.25 26.5 13.43 26.7 12.12 30.32 11.86 30.94 8.11 22.37 8.42"/><path class="cls-1" d="M40.96,7.72l-8.56.32-.6,3.67,1.28-.11-1.73,10.33,3.32-.86.79-4.28c5.35-1.48,5.51-8.34,5.49-9.07M35.92,13.78l.4-2.64,1.84-.11c.01.41-.87,2.42-2.23,2.75"/><path class="cls-1" d="M20.29,26.91c0,.38-.31.69-.69.69s-.69-.31-.69-.69.31-.69.69-.69c.38,0,.69.31.69.69M20.13,26.91c0-.3-.24-.55-.53-.55s-.53.24-.53.55.24.55.53.55.53-.25.53-.55M19.76,27.01l.14.26h-.15l-.12-.25h-.15v.24h-.14v-.72h.29c.17,0,.25.07.26.2,0,.02,0,.04,0,.05,0,.1-.05.17-.13.21M19.63,26.9c.08,0,.12-.04.13-.1v-.05c0-.06-.05-.09-.13-.09h-.16v.24h.16Z"/></g></svg>