<svg width="392" height="86" viewBox="0 0 392 86" fill="none" xmlns="http://www.w3.org/2000/svg">
<path d="M13.0898 18L10.9805 12.5625H4.11328L2.01562 18H0L6.70312 0.796875H8.49609L15.1523 18H13.0898ZM10.3828 10.793L8.37891 5.39062C8.33203 5.25 8.25391 5.01953 8.14453 4.69922C8.04297 4.37891 7.9375 4.04688 7.82812 3.70312C7.71875 3.35938 7.62891 3.08203 7.55859 2.87109C7.48047 3.19141 7.39453 3.51172 7.30078 3.83203C7.21484 4.14453 7.12891 4.4375 7.04297 4.71094C6.95703 4.97656 6.88281 5.20312 6.82031 5.39062L4.78125 10.793H10.3828Z" fill="white"/>
<path d="M17.5312 0.867188H22.3828C24.5234 0.867188 26.1328 1.1875 27.2109 1.82812C28.2891 2.46875 28.8281 3.55859 28.8281 5.09766C28.8281 5.76172 28.6992 6.35938 28.4414 6.89062C28.1914 7.41406 27.8242 7.84766 27.3398 8.19141C26.8555 8.53516 26.2578 8.77344 25.5469 8.90625V9.02344C26.2969 9.14062 26.9609 9.35547 27.5391 9.66797C28.1172 9.98047 28.5703 10.418 28.8984 10.9805C29.2266 11.543 29.3906 12.2578 29.3906 13.125C29.3906 14.1797 29.1445 15.0703 28.6523 15.7969C28.168 16.5234 27.4805 17.0742 26.5898 17.4492C25.6992 17.8164 24.6445 18 23.4258 18H17.5312V0.867188ZM19.5234 8.21484H22.8047C24.2969 8.21484 25.3281 7.96875 25.8984 7.47656C26.4766 6.98438 26.7656 6.26562 26.7656 5.32031C26.7656 4.34375 26.4219 3.64062 25.7344 3.21094C25.0547 2.78125 23.9688 2.56641 22.4766 2.56641H19.5234V8.21484ZM19.5234 9.89062V16.3008H23.0859C24.6094 16.3008 25.6875 16.0039 26.3203 15.4102C26.9531 14.8086 27.2695 14 27.2695 12.9844C27.2695 12.3359 27.125 11.7812 26.8359 11.3203C26.5547 10.8594 26.0938 10.5078 25.4531 10.2656C24.8203 10.0156 23.9727 9.89062 22.9102 9.89062H19.5234Z" fill="white"/>
<path d="M40.3711 2.37891C39.4258 2.37891 38.5742 2.54297 37.8164 2.87109C37.0664 3.19141 36.4258 3.66016 35.8945 4.27734C35.3711 4.88672 34.9688 5.625 34.6875 6.49219C34.4062 7.35938 34.2656 8.33594 34.2656 9.42188C34.2656 10.8594 34.4883 12.1094 34.9336 13.1719C35.3867 14.2266 36.0586 15.043 36.9492 15.6211C37.8477 16.1992 38.9688 16.4883 40.3125 16.4883C41.0781 16.4883 41.7969 16.4258 42.4688 16.3008C43.1484 16.168 43.8086 16.0039 44.4492 15.8086V17.543C43.8242 17.7773 43.168 17.9492 42.4805 18.0586C41.793 18.1758 40.9766 18.2344 40.0312 18.2344C38.2891 18.2344 36.832 17.875 35.6602 17.1562C34.4961 16.4297 33.6211 15.4062 33.0352 14.0859C32.457 12.7656 32.168 11.207 32.168 9.41016C32.168 8.11328 32.3477 6.92969 32.707 5.85938C33.0742 4.78125 33.6055 3.85156 34.3008 3.07031C35.0039 2.28906 35.8633 1.6875 36.8789 1.26562C37.9023 0.835938 39.0742 0.621094 40.3945 0.621094C41.2617 0.621094 42.0977 0.707031 42.9023 0.878906C43.707 1.05078 44.4336 1.29688 45.082 1.61719L44.2852 3.30469C43.7383 3.05469 43.1367 2.83984 42.4805 2.66016C41.832 2.47266 41.1289 2.37891 40.3711 2.37891Z" fill="white"/>
<path d="M61.7695 9.26953C61.7695 11.1992 61.418 12.8125 60.7148 14.1094C60.0117 15.3984 58.9922 16.3711 57.6562 17.0273C56.3281 17.6758 54.7148 18 52.8164 18H48.1641V0.867188H53.332C55.0742 0.867188 56.5742 1.1875 57.832 1.82812C59.0898 2.46094 60.0586 3.40234 60.7383 4.65234C61.4258 5.89453 61.7695 7.43359 61.7695 9.26953ZM59.6719 9.33984C59.6719 7.80078 59.4141 6.53125 58.8984 5.53125C58.3906 4.53125 57.6406 3.78906 56.6484 3.30469C55.6641 2.8125 54.457 2.56641 53.0273 2.56641H50.1562V16.2891H52.582C54.9414 16.2891 56.7109 15.707 57.8906 14.543C59.0781 13.3789 59.6719 11.6445 59.6719 9.33984Z" fill="white"/>
<path d="M75.1172 18H65.5781V0.867188H75.1172V2.625H67.5703V8.16797H74.6836V9.90234H67.5703V16.2422H75.1172V18Z" fill="white"/>
<path d="M80.9062 18H78.9141V0.867188H88.4531V2.625H80.9062V8.90625H87.9961V10.6523H80.9062V18Z" fill="white"/>
<path d="M98.6367 9.02344H104.625V17.332C103.727 17.6367 102.801 17.8633 101.848 18.0117C100.902 18.1602 99.8438 18.2344 98.6719 18.2344C96.8906 18.2344 95.3867 17.8789 94.1602 17.168C92.9414 16.457 92.0156 15.4453 91.3828 14.1328C90.75 12.8125 90.4336 11.2461 90.4336 9.43359C90.4336 7.66016 90.7812 6.11328 91.4766 4.79297C92.1797 3.47266 93.1914 2.44922 94.5117 1.72266C95.8398 0.988281 97.4336 0.621094 99.293 0.621094C100.246 0.621094 101.148 0.710938 102 0.890625C102.859 1.0625 103.656 1.30859 104.391 1.62891L103.629 3.36328C102.996 3.08984 102.297 2.85547 101.531 2.66016C100.773 2.46484 99.9883 2.36719 99.1758 2.36719C97.7773 2.36719 96.5781 2.65625 95.5781 3.23438C94.5859 3.8125 93.8242 4.62891 93.293 5.68359C92.7695 6.73828 92.5078 7.98828 92.5078 9.43359C92.5078 10.8633 92.7383 12.1094 93.1992 13.1719C93.6602 14.2266 94.3789 15.0469 95.3555 15.6328C96.332 16.2188 97.5898 16.5117 99.1289 16.5117C99.9023 16.5117 100.566 16.4688 101.121 16.3828C101.676 16.2891 102.18 16.1797 102.633 16.0547V10.8047H98.6367V9.02344Z" fill="white"/>
<path d="M121.758 18H119.766V9.92578H110.766V18H108.773V0.867188H110.766V8.16797H119.766V0.867188H121.758V18Z" fill="white"/>
<path d="M126.469 18V0.867188H128.461V18H126.469Z" fill="white"/>
<path d="M130.699 22.5117C130.309 22.5117 129.965 22.4844 129.668 22.4297C129.371 22.375 129.117 22.3008 128.906 22.207V20.5078C129.156 20.5859 129.426 20.6445 129.715 20.6836C130.004 20.7305 130.316 20.7539 130.652 20.7539C131.09 20.7539 131.492 20.668 131.859 20.4961C132.227 20.3242 132.52 20.0312 132.738 19.6172C132.957 19.2031 133.066 18.6328 133.066 17.9062V0.867188H135.07V17.7539C135.07 18.8242 134.891 19.7109 134.531 20.4141C134.18 21.1172 133.676 21.6406 133.02 21.9844C132.371 22.3359 131.598 22.5117 130.699 22.5117Z" fill="white"/>
<path d="M151.969 18H149.613L143.438 9.66797L141.609 11.3086V18H139.617V0.867188H141.609V9.41016C142.055 8.90234 142.512 8.39844 142.98 7.89844C143.449 7.39062 143.914 6.87891 144.375 6.36328L149.379 0.867188H151.711L144.891 8.29688L151.969 18Z" fill="white"/>
<path d="M154.312 18V0.867188H156.305V16.2188H163.91V18H154.312Z" fill="white"/>
<path d="M174.387 18L168.633 2.83594H168.539C168.57 3.15625 168.598 3.54688 168.621 4.00781C168.645 4.46875 168.664 4.97266 168.68 5.51953C168.695 6.05859 168.703 6.60938 168.703 7.17188V18H166.852V0.867188H169.805L175.23 15.1172H175.312L180.82 0.867188H183.75V18H181.781V7.03125C181.781 6.52344 181.789 6.01562 181.805 5.50781C181.82 4.99219 181.84 4.50781 181.863 4.05469C181.887 3.59375 181.91 3.19531 181.934 2.85938H181.84L176.016 18H174.387Z" fill="white"/>
<path d="M201.832 18H199.535L190.195 3.60938H190.102C190.125 3.99219 190.152 4.42969 190.184 4.92188C190.215 5.40625 190.238 5.92578 190.254 6.48047C190.277 7.02734 190.289 7.58594 190.289 8.15625V18H188.438V0.867188H190.723L200.027 15.2109H200.109C200.094 14.9375 200.074 14.5508 200.051 14.0508C200.027 13.543 200.004 13 199.98 12.4219C199.965 11.8359 199.957 11.293 199.957 10.793V0.867188H201.832V18Z" fill="white"/>
<path d="M221.367 9.41016C221.367 10.7305 221.199 11.9336 220.863 13.0195C220.527 14.0977 220.027 15.0273 219.363 15.8086C218.707 16.582 217.891 17.1797 216.914 17.6016C215.938 18.0234 214.805 18.2344 213.516 18.2344C212.188 18.2344 211.027 18.0234 210.035 17.6016C209.051 17.1797 208.23 16.5781 207.574 15.7969C206.926 15.0156 206.438 14.082 206.109 12.9961C205.789 11.9102 205.629 10.707 205.629 9.38672C205.629 7.63672 205.918 6.10156 206.496 4.78125C207.074 3.46094 207.949 2.43359 209.121 1.69922C210.301 0.964844 211.777 0.597656 213.551 0.597656C215.246 0.597656 216.672 0.960938 217.828 1.6875C218.992 2.41406 219.871 3.4375 220.465 4.75781C221.066 6.07031 221.367 7.62109 221.367 9.41016ZM207.727 9.41016C207.727 10.8633 207.934 12.1211 208.348 13.1836C208.762 14.2461 209.395 15.0664 210.246 15.6445C211.105 16.2227 212.195 16.5117 213.516 16.5117C214.844 16.5117 215.93 16.2227 216.773 15.6445C217.625 15.0664 218.254 14.2461 218.66 13.1836C219.066 12.1211 219.27 10.8633 219.27 9.41016C219.27 7.19922 218.805 5.47266 217.875 4.23047C216.953 2.98047 215.512 2.35547 213.551 2.35547C212.223 2.35547 211.129 2.64062 210.27 3.21094C209.41 3.78125 208.77 4.59375 208.348 5.64844C207.934 6.69531 207.727 7.94922 207.727 9.41016Z" fill="white"/>
<path d="M229.664 0.867188C231.875 0.867188 233.488 1.30078 234.504 2.16797C235.527 3.02734 236.039 4.26172 236.039 5.87109C236.039 6.59766 235.918 7.28906 235.676 7.94531C235.441 8.59375 235.059 9.16797 234.527 9.66797C233.996 10.1602 233.297 10.5508 232.43 10.8398C231.57 11.1211 230.516 11.2617 229.266 11.2617H227.18V18H225.188V0.867188H229.664ZM229.477 2.56641H227.18V9.55078H229.043C230.137 9.55078 231.047 9.43359 231.773 9.19922C232.508 8.96484 233.059 8.58594 233.426 8.0625C233.793 7.53125 233.977 6.82812 233.977 5.95312C233.977 4.8125 233.613 3.96484 232.887 3.41016C232.16 2.84766 231.023 2.56641 229.477 2.56641Z" fill="white"/>
<path d="M254.484 9.41016C254.484 10.8164 254.293 12.0898 253.91 13.2305C253.527 14.3711 252.957 15.3359 252.199 16.125C251.449 16.9141 250.512 17.4883 249.387 17.8477L253.418 22.0781H250.57L247.254 18.2109C247.152 18.2109 247.047 18.2148 246.938 18.2227C246.836 18.2305 246.734 18.2344 246.633 18.2344C245.305 18.2344 244.145 18.0234 243.152 17.6016C242.168 17.1797 241.348 16.5781 240.691 15.7969C240.043 15.0156 239.555 14.082 239.227 12.9961C238.906 11.9102 238.746 10.707 238.746 9.38672C238.746 7.63672 239.035 6.10156 239.613 4.78125C240.191 3.46094 241.066 2.43359 242.238 1.69922C243.418 0.964844 244.895 0.597656 246.668 0.597656C248.363 0.597656 249.789 0.960938 250.945 1.6875C252.109 2.41406 252.988 3.4375 253.582 4.75781C254.184 6.07031 254.484 7.62109 254.484 9.41016ZM240.844 9.41016C240.844 10.8633 241.051 12.1211 241.465 13.1836C241.879 14.2461 242.512 15.0664 243.363 15.6445C244.223 16.2227 245.312 16.5117 246.633 16.5117C247.961 16.5117 249.047 16.2227 249.891 15.6445C250.742 15.0664 251.371 14.2461 251.777 13.1836C252.184 12.1211 252.387 10.8633 252.387 9.41016C252.387 7.19922 251.922 5.47266 250.992 4.23047C250.07 2.98047 248.629 2.35547 246.668 2.35547C245.34 2.35547 244.246 2.64062 243.387 3.21094C242.527 3.78125 241.887 4.59375 241.465 5.64844C241.051 6.69531 240.844 7.94922 240.844 9.41016Z" fill="white"/>
<path d="M262.934 0.867188C264.34 0.867188 265.5 1.04297 266.414 1.39453C267.336 1.73828 268.023 2.26562 268.477 2.97656C268.93 3.6875 269.156 4.59375 269.156 5.69531C269.156 6.60156 268.992 7.35938 268.664 7.96875C268.336 8.57031 267.906 9.05859 267.375 9.43359C266.844 9.80859 266.277 10.0977 265.676 10.3008L270.375 18H268.055L263.859 10.8516H260.297V18H258.305V0.867188H262.934ZM262.816 2.58984H260.297V9.16406H263.016C264.414 9.16406 265.441 8.87891 266.098 8.30859C266.762 7.73828 267.094 6.89844 267.094 5.78906C267.094 4.625 266.742 3.80078 266.039 3.31641C265.344 2.83203 264.27 2.58984 262.816 2.58984Z" fill="white"/>
<path d="M282.785 13.4414C282.785 14.457 282.531 15.3242 282.023 16.043C281.523 16.7539 280.82 17.2969 279.914 17.6719C279.008 18.0469 277.941 18.2344 276.715 18.2344C276.066 18.2344 275.453 18.2031 274.875 18.1406C274.297 18.0781 273.766 17.9883 273.281 17.8711C272.797 17.7539 272.371 17.6094 272.004 17.4375V15.5273C272.59 15.7695 273.305 15.9961 274.148 16.207C274.992 16.4102 275.875 16.5117 276.797 16.5117C277.656 16.5117 278.383 16.3984 278.977 16.1719C279.57 15.9375 280.02 15.6055 280.324 15.1758C280.637 14.7383 280.793 14.2148 280.793 13.6055C280.793 13.0195 280.664 12.5312 280.406 12.1406C280.148 11.7422 279.719 11.3828 279.117 11.0625C278.523 10.7344 277.711 10.3867 276.68 10.0195C275.953 9.76172 275.312 9.48047 274.758 9.17578C274.203 8.86328 273.738 8.51172 273.363 8.12109C272.988 7.73047 272.703 7.27734 272.508 6.76172C272.32 6.24609 272.227 5.65625 272.227 4.99219C272.227 4.07812 272.457 3.29688 272.918 2.64844C273.387 1.99219 274.031 1.49219 274.852 1.14844C275.68 0.796875 276.629 0.621094 277.699 0.621094C278.613 0.621094 279.457 0.707031 280.23 0.878906C281.012 1.05078 281.727 1.28125 282.375 1.57031L281.754 3.28125C281.137 3.02344 280.48 2.80859 279.785 2.63672C279.098 2.46484 278.387 2.37891 277.652 2.37891C276.918 2.37891 276.297 2.48828 275.789 2.70703C275.289 2.91797 274.906 3.21875 274.641 3.60938C274.375 4 274.242 4.46484 274.242 5.00391C274.242 5.60547 274.367 6.10547 274.617 6.50391C274.875 6.90234 275.281 7.25781 275.836 7.57031C276.398 7.875 277.141 8.19531 278.062 8.53125C279.07 8.89844 279.926 9.28906 280.629 9.70312C281.332 10.1094 281.867 10.6094 282.234 11.2031C282.602 11.7891 282.785 12.5352 282.785 13.4414Z" fill="white"/>
<path d="M291.551 18H289.547V2.625H284.156V0.867188H296.918V2.625H291.551V18Z" fill="white"/>
<path d="M312.469 0.867188V11.9531C312.469 13.1641 312.223 14.2422 311.73 15.1875C311.246 16.1328 310.512 16.8789 309.527 17.4258C308.543 17.9648 307.309 18.2344 305.824 18.2344C303.707 18.2344 302.094 17.6602 300.984 16.5117C299.883 15.3633 299.332 13.8281 299.332 11.9062V0.867188H301.336V11.9648C301.336 13.418 301.719 14.5391 302.484 15.3281C303.258 16.1172 304.41 16.5117 305.941 16.5117C306.988 16.5117 307.844 16.3242 308.508 15.9492C309.18 15.5664 309.676 15.0352 309.996 14.3555C310.324 13.668 310.488 12.875 310.488 11.9766V0.867188H312.469Z" fill="white"/>
<path d="M328.98 0.867188L322.828 18H320.824L314.672 0.867188H316.758L320.766 12.1523C320.93 12.6055 321.074 13.0391 321.199 13.4531C321.332 13.8672 321.449 14.2656 321.551 14.6484C321.652 15.0312 321.742 15.4023 321.82 15.7617C321.898 15.4023 321.988 15.0312 322.09 14.6484C322.191 14.2578 322.309 13.8555 322.441 13.4414C322.574 13.0195 322.723 12.5781 322.887 12.1172L326.871 0.867188H328.98Z" fill="white"/>
<path d="M350.801 0.867188L346.219 18H344.215L340.816 6.46875C340.715 6.14062 340.617 5.8125 340.523 5.48438C340.438 5.14844 340.355 4.83203 340.277 4.53516C340.199 4.23047 340.133 3.96484 340.078 3.73828C340.031 3.50391 339.996 3.32812 339.973 3.21094C339.957 3.32812 339.926 3.5 339.879 3.72656C339.84 3.95312 339.785 4.21484 339.715 4.51172C339.652 4.80859 339.574 5.125 339.48 5.46094C339.395 5.79688 339.301 6.13672 339.199 6.48047L335.895 18H333.891L329.344 0.867188H331.418L334.172 11.6133C334.266 11.9727 334.352 12.3281 334.43 12.6797C334.516 13.0234 334.59 13.3594 334.652 13.6875C334.723 14.0156 334.785 14.3359 334.84 14.6484C334.895 14.9609 334.945 15.2656 334.992 15.5625C335.031 15.2578 335.082 14.9414 335.145 14.6133C335.207 14.2773 335.273 13.9375 335.344 13.5938C335.422 13.25 335.504 12.9023 335.59 12.5508C335.684 12.1992 335.781 11.8477 335.883 11.4961L338.965 0.867188H341.016L344.227 11.5781C344.336 11.9453 344.438 12.3086 344.531 12.668C344.625 13.0273 344.707 13.3789 344.777 13.7227C344.855 14.0586 344.922 14.3828 344.977 14.6953C345.039 15 345.094 15.2891 345.141 15.5625C345.195 15.1797 345.262 14.7773 345.34 14.3555C345.418 13.9336 345.508 13.4922 345.609 13.0312C345.719 12.5703 345.836 12.0938 345.961 11.6016L348.715 0.867188H350.801Z" fill="white"/>
<path d="M364.945 18H362.684L358.055 10.4531L353.355 18H351.234L356.941 9.07031L351.633 0.867188H353.848L358.125 7.69922L362.426 0.867188H364.535L359.238 9.03516L364.945 18Z" fill="white"/>
<path d="M371.754 9.45703L376.312 0.867188H378.457L372.75 11.3555V18H370.758V11.4492L365.039 0.867188H367.219L371.754 9.45703Z" fill="white"/>
<path d="M391.277 18H379.383V16.5L388.605 2.64844H379.699V0.867188H391.031V2.36719L381.797 16.2188H391.277V18Z" fill="white"/>
<path d="M8.42578 49H6.52734V36.8594C6.52734 36.3984 6.52734 36.0039 6.52734 35.6758C6.53516 35.3398 6.54297 35.0352 6.55078 34.7617C6.56641 34.4805 6.58594 34.1953 6.60938 33.9062C6.36719 34.1562 6.14062 34.3711 5.92969 34.5508C5.71875 34.7227 5.45703 34.9375 5.14453 35.1953L3.1875 36.7656L2.16797 35.4414L6.80859 31.8672H8.42578V49Z" fill="white"/>
<path d="M26.1445 49H14.918V47.3711L19.5 42.7188C20.3516 41.8594 21.0664 41.0938 21.6445 40.4219C22.2305 39.75 22.6758 39.0898 22.9805 38.4414C23.2852 37.7852 23.4375 37.0664 23.4375 36.2852C23.4375 35.3164 23.1484 34.5781 22.5703 34.0703C22 33.5547 21.2461 33.2969 20.3086 33.2969C19.4883 33.2969 18.7617 33.4375 18.1289 33.7188C17.4961 34 16.8477 34.3984 16.1836 34.9141L15.1406 33.6016C15.5938 33.2188 16.0859 32.8789 16.6172 32.582C17.1562 32.2852 17.7305 32.0508 18.3398 31.8789C18.957 31.707 19.6133 31.6211 20.3086 31.6211C21.3633 31.6211 22.2734 31.8047 23.0391 32.1719C23.8047 32.5391 24.3945 33.0625 24.8086 33.7422C25.2305 34.4219 25.4414 35.2305 25.4414 36.168C25.4414 37.0742 25.2617 37.918 24.9023 38.6992C24.543 39.4727 24.0391 40.2422 23.3906 41.0078C22.7422 41.7656 21.9844 42.5703 21.1172 43.4219L17.3906 47.1367V47.2188H26.1445V49Z" fill="white"/>
<path d="M39.2461 35.8633C39.2461 36.6289 39.0977 37.293 38.8008 37.8555C38.5039 38.418 38.0898 38.8789 37.5586 39.2383C37.0273 39.5898 36.4023 39.8359 35.6836 39.9766V40.0703C37.043 40.2422 38.0625 40.6797 38.7422 41.3828C39.4297 42.0859 39.7734 43.0078 39.7734 44.1484C39.7734 45.1406 39.5391 46.0195 39.0703 46.7852C38.6094 47.5508 37.8984 48.1523 36.9375 48.5898C35.9844 49.0195 34.7617 49.2344 33.2695 49.2344C32.3633 49.2344 31.5234 49.1602 30.75 49.0117C29.9844 48.8711 29.25 48.6328 28.5469 48.2969V46.4688C29.2578 46.8203 30.0312 47.0977 30.8672 47.3008C31.7031 47.4961 32.5117 47.5938 33.293 47.5938C34.8555 47.5938 35.9844 47.2852 36.6797 46.668C37.375 46.043 37.7227 45.1914 37.7227 44.1133C37.7227 43.3711 37.5273 42.7734 37.1367 42.3203C36.7539 41.8594 36.1992 41.5234 35.4727 41.3125C34.7539 41.0938 33.8867 40.9844 32.8711 40.9844H31.1602V39.3203H32.8828C33.8125 39.3203 34.6016 39.1836 35.25 38.9102C35.8984 38.6367 36.3906 38.2539 36.7266 37.7617C37.0703 37.2617 37.2422 36.6719 37.2422 35.9922C37.2422 35.125 36.9531 34.457 36.375 33.9883C35.7969 33.5117 35.0117 33.2734 34.0195 33.2734C33.4102 33.2734 32.8555 33.3359 32.3555 33.4609C31.8555 33.5859 31.3867 33.7578 30.9492 33.9766C30.5117 34.1953 30.0742 34.4492 29.6367 34.7383L28.6523 33.4023C29.2773 32.918 30.0391 32.5 30.9375 32.1484C31.8359 31.7969 32.8555 31.6211 33.9961 31.6211C35.7461 31.6211 37.0586 32.0195 37.9336 32.8164C38.8086 33.6133 39.2461 34.6289 39.2461 35.8633Z" fill="white"/>
<path d="M54.4688 45.0273H51.9023V49H50.0039V45.0273H41.7188V43.3867L49.875 31.7734H51.9023V43.2695H54.4688V45.0273ZM50.0039 43.2695V37.668C50.0039 37.2383 50.0078 36.8516 50.0156 36.5078C50.0234 36.1562 50.0352 35.832 50.0508 35.5352C50.0664 35.2305 50.0781 34.9414 50.0859 34.668C50.1016 34.3945 50.1133 34.125 50.1211 33.8594H50.0273C49.8789 34.1719 49.707 34.5039 49.5117 34.8555C49.3242 35.1992 49.1328 35.5078 48.9375 35.7812L43.6523 43.2695H50.0039Z" fill="white"/>
<path d="M61.5352 38.5234C62.6992 38.5234 63.7109 38.7227 64.5703 39.1211C65.4297 39.5117 66.0938 40.082 66.5625 40.832C67.0391 41.582 67.2773 42.4922 67.2773 43.5625C67.2773 44.7344 67.0234 45.7461 66.5156 46.5977C66.0078 47.4414 65.2773 48.0938 64.3242 48.5547C63.3711 49.0078 62.2305 49.2344 60.9023 49.2344C60.0117 49.2344 59.1836 49.1562 58.418 49C57.6523 48.8438 57.0078 48.6094 56.4844 48.2969V46.4453C57.0547 46.7891 57.7461 47.0625 58.5586 47.2656C59.3711 47.4688 60.1602 47.5703 60.9258 47.5703C61.793 47.5703 62.5508 47.4336 63.1992 47.1602C63.8555 46.8789 64.3633 46.457 64.7227 45.8945C65.0898 45.3242 65.2734 44.6094 65.2734 43.75C65.2734 42.6094 64.9219 41.7305 64.2188 41.1133C63.5234 40.4883 62.4219 40.1758 60.9141 40.1758C60.4297 40.1758 59.8984 40.2148 59.3203 40.293C58.7422 40.3711 58.2656 40.457 57.8906 40.5508L56.9062 39.9062L57.5625 31.8672H66.082V33.6484H59.2266L58.793 38.8164C59.0898 38.7539 59.4727 38.6914 59.9414 38.6289C60.4102 38.5586 60.9414 38.5234 61.5352 38.5234Z" fill="white"/>
<path d="M70.0312 41.6758C70.0312 40.6445 70.1016 39.6367 70.2422 38.6523C70.3906 37.668 70.6367 36.7539 70.9805 35.9102C71.3242 35.0586 71.793 34.3125 72.3867 33.6719C72.9805 33.0312 73.7188 32.5312 74.6016 32.1719C75.4922 31.8047 76.5586 31.6211 77.8008 31.6211C78.1523 31.6211 78.5312 31.6406 78.9375 31.6797C79.3438 31.7109 79.6797 31.7656 79.9453 31.8438V33.5195C79.6562 33.418 79.3242 33.3438 78.9492 33.2969C78.582 33.25 78.2109 33.2266 77.8359 33.2266C76.3828 33.2266 75.2383 33.543 74.4023 34.1758C73.5742 34.8086 72.9766 35.668 72.6094 36.7539C72.2422 37.832 72.0312 39.0469 71.9766 40.3984H72.1055C72.3477 40.0078 72.6562 39.6562 73.0312 39.3438C73.4062 39.0234 73.8594 38.7695 74.3906 38.582C74.9297 38.3945 75.5547 38.3008 76.2656 38.3008C77.2656 38.3008 78.1367 38.5039 78.8789 38.9102C79.6289 39.3164 80.207 39.9062 80.6133 40.6797C81.0273 41.4531 81.2344 42.3906 81.2344 43.4922C81.2344 44.6719 81.0156 45.6914 80.5781 46.5508C80.1406 47.4102 79.5156 48.0742 78.7031 48.543C77.8984 49.0039 76.9375 49.2344 75.8203 49.2344C74.9844 49.2344 74.2148 49.0742 73.5117 48.7539C72.8086 48.4336 72.1953 47.957 71.6719 47.3242C71.1562 46.6914 70.7539 45.9062 70.4648 44.9688C70.1758 44.0234 70.0312 42.9258 70.0312 41.6758ZM75.7969 47.5938C76.8594 47.5938 77.7109 47.2539 78.3516 46.5742C78.9922 45.8945 79.3125 44.8672 79.3125 43.4922C79.3125 42.3672 79.0273 41.4766 78.457 40.8203C77.8867 40.1641 77.0273 39.8359 75.8789 39.8359C75.0977 39.8359 74.418 40 73.8398 40.3281C73.2617 40.6484 72.8125 41.0547 72.4922 41.5469C72.1719 42.0391 72.0117 42.5391 72.0117 43.0469C72.0117 43.5625 72.0859 44.0859 72.2344 44.6172C72.3906 45.1484 72.625 45.6406 72.9375 46.0938C73.25 46.5469 73.6445 46.9102 74.1211 47.1836C74.5977 47.457 75.1562 47.5938 75.7969 47.5938Z" fill="white"/>
<path d="M85.8047 49L92.8359 33.6484H83.4961V31.8672H94.9219V33.3672L87.9375 49H85.8047Z" fill="white"/>
<path d="M102.984 31.6211C103.977 31.6211 104.855 31.7773 105.621 32.0898C106.387 32.4023 106.984 32.8633 107.414 33.4727C107.852 34.0742 108.07 34.8164 108.07 35.6992C108.07 36.3945 107.918 37.0039 107.613 37.5273C107.316 38.043 106.914 38.4961 106.406 38.8867C105.898 39.2695 105.336 39.6133 104.719 39.918C105.453 40.2539 106.113 40.6328 106.699 41.0547C107.293 41.4766 107.762 41.9727 108.105 42.543C108.449 43.1133 108.621 43.7891 108.621 44.5703C108.621 45.5312 108.387 46.3633 107.918 47.0664C107.457 47.7617 106.809 48.2969 105.973 48.6719C105.137 49.0469 104.156 49.2344 103.031 49.2344C101.82 49.2344 100.789 49.0547 99.9375 48.6953C99.0938 48.3281 98.4492 47.8047 98.0039 47.125C97.5664 46.4375 97.3477 45.6133 97.3477 44.6523C97.3477 43.8633 97.5156 43.1797 97.8516 42.6016C98.1875 42.0156 98.6328 41.5117 99.1875 41.0898C99.7422 40.668 100.348 40.3125 101.004 40.0234C100.434 39.7109 99.9102 39.3555 99.4336 38.957C98.9648 38.5586 98.5898 38.0938 98.3086 37.5625C98.0352 37.0234 97.8984 36.3984 97.8984 35.6875C97.8984 34.8203 98.1172 34.0859 98.5547 33.4844C99 32.875 99.6055 32.4141 100.371 32.1016C101.145 31.7812 102.016 31.6211 102.984 31.6211ZM99.2578 44.6641C99.2578 45.5391 99.5664 46.2617 100.184 46.832C100.801 47.3945 101.734 47.6758 102.984 47.6758C104.172 47.6758 105.09 47.3945 105.738 46.832C106.387 46.2617 106.711 45.5156 106.711 44.5938C106.711 44.0234 106.562 43.5234 106.266 43.0938C105.969 42.6562 105.547 42.2656 105 41.9219C104.453 41.5781 103.809 41.2656 103.066 40.9844L102.645 40.832C101.926 41.1289 101.312 41.4609 100.805 41.8281C100.305 42.1875 99.9219 42.5977 99.6562 43.0586C99.3906 43.5195 99.2578 44.0547 99.2578 44.6641ZM102.961 33.2148C102.039 33.2148 101.285 33.4375 100.699 33.8828C100.113 34.3203 99.8203 34.9531 99.8203 35.7812C99.8203 36.375 99.9609 36.8789 100.242 37.293C100.531 37.6992 100.922 38.0508 101.414 38.3477C101.906 38.6367 102.457 38.9062 103.066 39.1562C103.66 38.9062 104.188 38.6328 104.648 38.3359C105.109 38.0312 105.473 37.6719 105.738 37.2578C106.004 36.8438 106.137 36.3477 106.137 35.7695C106.137 34.9414 105.844 34.3086 105.258 33.8711C104.68 33.4336 103.914 33.2148 102.961 33.2148Z" fill="white"/>
<path d="M122.309 39.168C122.309 40.207 122.234 41.2188 122.086 42.2031C121.945 43.1875 121.699 44.1055 121.348 44.957C121.004 45.8086 120.535 46.5547 119.941 47.1953C119.348 47.8359 118.602 48.3398 117.703 48.707C116.812 49.0664 115.746 49.2461 114.504 49.2461C114.168 49.2461 113.785 49.2227 113.355 49.1758C112.926 49.1367 112.574 49.0781 112.301 49V47.3125C112.59 47.4141 112.93 47.4961 113.32 47.5586C113.711 47.6133 114.094 47.6406 114.469 47.6406C115.93 47.6406 117.078 47.3281 117.914 46.7031C118.75 46.0703 119.352 45.2148 119.719 44.1367C120.086 43.0508 120.293 41.832 120.34 40.4805H120.199C119.965 40.8555 119.656 41.2031 119.273 41.5234C118.898 41.8359 118.441 42.0898 117.902 42.2852C117.363 42.4727 116.734 42.5664 116.016 42.5664C115.023 42.5664 114.156 42.3633 113.414 41.957C112.68 41.5508 112.105 40.9609 111.691 40.1875C111.285 39.4141 111.082 38.4805 111.082 37.3867C111.082 36.207 111.305 35.1875 111.75 34.3281C112.203 33.4609 112.836 32.793 113.648 32.3242C114.461 31.8555 115.418 31.6211 116.52 31.6211C117.363 31.6211 118.137 31.7812 118.84 32.1016C119.543 32.4219 120.152 32.9023 120.668 33.543C121.191 34.1758 121.594 34.9609 121.875 35.8984C122.164 36.8359 122.309 37.9258 122.309 39.168ZM116.52 33.2734C115.48 33.2734 114.637 33.6133 113.988 34.293C113.348 34.9727 113.027 35.9961 113.027 37.3633C113.027 38.4961 113.305 39.3906 113.859 40.0469C114.414 40.7031 115.27 41.0312 116.426 41.0312C117.223 41.0312 117.91 40.8711 118.488 40.5508C119.074 40.2305 119.523 39.8242 119.836 39.332C120.156 38.8398 120.316 38.3359 120.316 37.8203C120.316 37.3047 120.238 36.7812 120.082 36.25C119.934 35.7188 119.703 35.2305 119.391 34.7852C119.078 34.332 118.684 33.9688 118.207 33.6953C117.73 33.4141 117.168 33.2734 116.52 33.2734Z" fill="white"/>
<path d="M136.113 40.4102C136.113 41.8008 136.008 43.043 135.797 44.1367C135.586 45.2305 135.254 46.1562 134.801 46.9141C134.348 47.6719 133.762 48.25 133.043 48.6484C132.324 49.0391 131.461 49.2344 130.453 49.2344C129.18 49.2344 128.125 48.8867 127.289 48.1914C126.461 47.4961 125.84 46.4922 125.426 45.1797C125.02 43.8594 124.816 42.2695 124.816 40.4102C124.816 38.582 125 37.0117 125.367 35.6992C125.742 34.3789 126.344 33.3672 127.172 32.6641C128 31.9531 129.094 31.5977 130.453 31.5977C131.742 31.5977 132.805 31.9492 133.641 32.6523C134.477 33.3477 135.098 34.3555 135.504 35.6758C135.91 36.9883 136.113 38.5664 136.113 40.4102ZM126.773 40.4102C126.773 42.0039 126.895 43.332 127.137 44.3945C127.379 45.457 127.77 46.2539 128.309 46.7852C128.855 47.3086 129.57 47.5703 130.453 47.5703C131.336 47.5703 132.047 47.3086 132.586 46.7852C133.133 46.2617 133.527 45.4688 133.77 44.4062C134.02 43.3438 134.145 42.0117 134.145 40.4102C134.145 38.8398 134.023 37.5273 133.781 36.4727C133.539 35.4102 133.148 34.6133 132.609 34.082C132.07 33.543 131.352 33.2734 130.453 33.2734C129.555 33.2734 128.836 33.543 128.297 34.082C127.758 34.6133 127.367 35.4102 127.125 36.4727C126.891 37.5273 126.773 38.8398 126.773 40.4102Z" fill="white"/>
<path d="M139.102 47.7812C139.102 47.2344 139.234 46.8477 139.5 46.6211C139.766 46.3867 140.09 46.2695 140.473 46.2695C140.871 46.2695 141.207 46.3867 141.48 46.6211C141.754 46.8477 141.891 47.2344 141.891 47.7812C141.891 48.3203 141.754 48.7148 141.48 48.9648C141.207 49.207 140.871 49.3281 140.473 49.3281C140.09 49.3281 139.766 49.207 139.5 48.9648C139.234 48.7148 139.102 48.3203 139.102 47.7812Z" fill="white"/>
<path d="M147.926 46.2109L148.078 46.4805C147.938 47.0508 147.758 47.6602 147.539 48.3086C147.328 48.957 147.094 49.6055 146.836 50.2539C146.586 50.9102 146.332 51.5234 146.074 52.0938H144.621C144.785 51.4688 144.945 50.8086 145.102 50.1133C145.258 49.4258 145.398 48.7461 145.523 48.0742C145.656 47.3945 145.762 46.7734 145.84 46.2109H147.926Z" fill="white"/>
<path d="M157.934 31.8672C157.77 32.4688 157.605 33.1211 157.441 33.8242C157.285 34.5195 157.141 35.207 157.008 35.8867C156.875 36.5664 156.77 37.1836 156.691 37.7383H154.617L154.441 37.4805C154.582 36.9102 154.762 36.3008 154.98 35.6523C155.207 35.0039 155.449 34.3555 155.707 33.707C155.973 33.0508 156.238 32.4375 156.504 31.8672H157.934ZM153.621 31.8672C153.457 32.4688 153.293 33.1211 153.129 33.8242C152.973 34.5195 152.828 35.207 152.695 35.8867C152.562 36.5664 152.457 37.1836 152.379 37.7383H150.316L150.176 37.4805C150.316 36.9102 150.492 36.3008 150.703 35.6523C150.922 35.0039 151.16 34.3555 151.418 33.707C151.676 33.0508 151.938 32.4375 152.203 31.8672H153.621Z" fill="white"/>
<path d="M166.113 31.8672L166.289 32.125C166.148 32.7031 165.969 33.3203 165.75 33.9766C165.531 34.625 165.293 35.2734 165.035 35.9219C164.777 36.5625 164.52 37.168 164.262 37.7383H162.797C162.961 37.1445 163.125 36.5 163.289 35.8047C163.453 35.1094 163.602 34.418 163.734 33.7305C163.867 33.043 163.973 32.4219 164.051 31.8672H166.113ZM161.801 31.8672L161.965 32.125C161.832 32.7031 161.652 33.3203 161.426 33.9766C161.207 34.625 160.969 35.2734 160.711 35.9219C160.453 36.5625 160.195 37.168 159.938 37.7383H158.531C158.648 37.293 158.766 36.8164 158.883 36.3086C159.008 35.8008 159.121 35.2852 159.223 34.7617C159.332 34.2383 159.43 33.7305 159.516 33.2383C159.609 32.7461 159.684 32.2891 159.738 31.8672H161.801Z" fill="white"/>
<path d="M173.895 31.5977C174.738 31.5977 175.465 31.7461 176.074 32.043C176.691 32.332 177.164 32.75 177.492 33.2969C177.828 33.8438 177.996 34.5039 177.996 35.2773C177.996 36.293 177.664 37.1523 177 37.8555C176.344 38.5586 175.508 39.1992 174.492 39.7773L179.25 44.3945C179.68 43.8945 180.031 43.3164 180.305 42.6602C180.578 41.9961 180.809 41.2773 180.996 40.5039H182.965C182.715 41.5352 182.391 42.4844 181.992 43.3516C181.602 44.2188 181.109 44.9805 180.516 45.6367L183.949 49H181.312L179.191 46.9258C178.691 47.3867 178.152 47.793 177.574 48.1445C177.004 48.4883 176.367 48.7578 175.664 48.9531C174.969 49.1406 174.172 49.2344 173.273 49.2344C172.18 49.2344 171.23 49.0547 170.426 48.6953C169.621 48.3359 168.996 47.8086 168.551 47.1133C168.113 46.418 167.895 45.5664 167.895 44.5586C167.895 43.7305 168.047 43.0195 168.352 42.4258C168.656 41.832 169.09 41.3047 169.652 40.8438C170.215 40.3828 170.887 39.9336 171.668 39.4961C171.301 39.0898 170.953 38.6797 170.625 38.2656C170.297 37.8438 170.031 37.3945 169.828 36.918C169.625 36.4336 169.523 35.9023 169.523 35.3242C169.523 34.543 169.699 33.875 170.051 33.3203C170.41 32.7656 170.914 32.3398 171.562 32.043C172.219 31.7461 172.996 31.5977 173.895 31.5977ZM172.84 40.7266C172.23 41.0781 171.707 41.4258 171.27 41.7695C170.84 42.1133 170.508 42.5 170.273 42.9297C170.047 43.3594 169.934 43.8789 169.934 44.4883C169.934 45.4023 170.242 46.1367 170.859 46.6914C171.477 47.2383 172.301 47.5117 173.332 47.5117C174.395 47.5117 175.297 47.3359 176.039 46.9844C176.789 46.6328 177.426 46.207 177.949 45.707L172.84 40.7266ZM173.824 33.2031C173.113 33.2031 172.535 33.3906 172.09 33.7656C171.652 34.1328 171.434 34.6484 171.434 35.3125C171.434 35.9062 171.594 36.4531 171.914 36.9531C172.234 37.4531 172.691 38.0078 173.285 38.6172C174.262 38.0781 174.969 37.5586 175.406 37.0586C175.852 36.5508 176.074 35.957 176.074 35.2773C176.074 34.6602 175.867 34.1602 175.453 33.7773C175.047 33.3945 174.504 33.2031 173.824 33.2031Z" fill="white"/>
<path d="M190.57 41.2891C190.016 41.0391 189.547 40.8672 189.164 40.7734C188.781 40.6719 188.406 40.6211 188.039 40.6211C187.594 40.6211 187.121 40.7539 186.621 41.0195C186.129 41.2852 185.684 41.6211 185.285 42.0273V40.2812C185.676 39.8672 186.109 39.5547 186.586 39.3438C187.07 39.1328 187.598 39.0273 188.168 39.0273C188.652 39.0273 189.121 39.082 189.574 39.1914C190.035 39.293 190.609 39.4922 191.297 39.7891C191.867 40.0312 192.34 40.2031 192.715 40.3047C193.09 40.4062 193.453 40.457 193.805 40.457C194.266 40.457 194.742 40.3242 195.234 40.0586C195.727 39.793 196.168 39.457 196.559 39.0508V40.7734C196.184 41.1797 195.758 41.4961 195.281 41.7227C194.805 41.9414 194.277 42.0508 193.699 42.0508C193.23 42.0508 192.766 42 192.305 41.8984C191.844 41.7969 191.266 41.5938 190.57 41.2891Z" fill="white"/>
<path d="M6.85547 66.9453C8.38672 66.9453 9.52344 67.2891 10.2656 67.9766C11.0078 68.6641 11.3789 69.7617 11.3789 71.2695V80H9.96094L9.58594 78.1016H9.49219C9.13281 78.5703 8.75781 78.9648 8.36719 79.2852C7.97656 79.5977 7.52344 79.8359 7.00781 80C6.5 80.1562 5.875 80.2344 5.13281 80.2344C4.35156 80.2344 3.65625 80.0977 3.04688 79.8242C2.44531 79.5508 1.96875 79.1367 1.61719 78.582C1.27344 78.0273 1.10156 77.3242 1.10156 76.4727C1.10156 75.1914 1.60938 74.207 2.625 73.5195C3.64062 72.832 5.1875 72.457 7.26562 72.3945L9.48047 72.3008V71.5156C9.48047 70.4062 9.24219 69.6289 8.76562 69.1836C8.28906 68.7383 7.61719 68.5156 6.75 68.5156C6.07812 68.5156 5.4375 68.6133 4.82812 68.8086C4.21875 69.0039 3.64062 69.2344 3.09375 69.5L2.49609 68.0234C3.07422 67.7266 3.73828 67.4727 4.48828 67.2617C5.23828 67.0508 6.02734 66.9453 6.85547 66.9453ZM9.45703 73.6719L7.5 73.7539C5.89844 73.8164 4.76953 74.0781 4.11328 74.5391C3.45703 75 3.12891 75.6523 3.12891 76.4961C3.12891 77.2305 3.35156 77.7734 3.79688 78.125C4.24219 78.4766 4.83203 78.6523 5.56641 78.6523C6.70703 78.6523 7.64062 78.3359 8.36719 77.7031C9.09375 77.0703 9.45703 76.1211 9.45703 74.8555V73.6719Z" fill="white"/>
<path d="M17.332 61.7656V66.3242C17.332 66.8477 17.3164 67.3555 17.2852 67.8477C17.2617 68.3398 17.2422 68.7227 17.2266 68.9961H17.332C17.6836 68.418 18.1914 67.9297 18.8555 67.5312C19.5195 67.1328 20.3672 66.9336 21.3984 66.9336C23.0078 66.9336 24.2891 67.4922 25.2422 68.6094C26.2031 69.7188 26.6836 71.3711 26.6836 73.5664C26.6836 75.0117 26.4648 76.2305 26.0273 77.2227C25.5898 78.2148 24.9727 78.9648 24.1758 79.4727C23.3789 79.9805 22.4375 80.2344 21.3516 80.2344C20.3359 80.2344 19.5 80.0469 18.8438 79.6719C18.1953 79.2891 17.6953 78.8242 17.3438 78.2773H17.1914L16.793 80H15.3867V61.7656H17.332ZM21.082 68.5625C20.1523 68.5625 19.4141 68.7461 18.8672 69.1133C18.3203 69.4727 17.9258 70.0195 17.6836 70.7539C17.4492 71.4805 17.332 72.4023 17.332 73.5195V73.625C17.332 75.2422 17.6016 76.4805 18.1406 77.3398C18.6797 78.1914 19.6602 78.6172 21.082 78.6172C22.2773 78.6172 23.1719 78.1797 23.7656 77.3047C24.3672 76.4297 24.668 75.1797 24.668 73.5547C24.668 71.8984 24.3711 70.6523 23.7773 69.8164C23.1914 68.9805 22.293 68.5625 21.082 68.5625Z" fill="white"/>
<path d="M35.2266 80.2344C34.0703 80.2344 33.0508 79.9961 32.168 79.5195C31.2852 79.043 30.5977 78.3164 30.1055 77.3398C29.6133 76.3633 29.3672 75.1328 29.3672 73.6484C29.3672 72.0938 29.625 70.8242 30.1406 69.8398C30.6641 68.8477 31.3828 68.1133 32.2969 67.6367C33.2109 67.1602 34.25 66.9219 35.4141 66.9219C36.0547 66.9219 36.6719 66.9883 37.2656 67.1211C37.8672 67.2461 38.3594 67.4062 38.7422 67.6016L38.1562 69.2305C37.7656 69.0742 37.3125 68.9336 36.7969 68.8086C36.2891 68.6836 35.8125 68.6211 35.3672 68.6211C34.4766 68.6211 33.7344 68.8125 33.1406 69.1953C32.5547 69.5781 32.1133 70.1406 31.8164 70.8828C31.5273 71.625 31.3828 72.5391 31.3828 73.625C31.3828 74.6641 31.5234 75.5508 31.8047 76.2852C32.0938 77.0195 32.5195 77.582 33.082 77.9727C33.6523 78.3555 34.3633 78.5469 35.2148 78.5469C35.8945 78.5469 36.5078 78.4766 37.0547 78.3359C37.6016 78.1875 38.0977 78.0156 38.543 77.8203V79.5547C38.1133 79.7734 37.6328 79.9414 37.1016 80.0586C36.5781 80.1758 35.9531 80.2344 35.2266 80.2344Z" fill="white"/>
<path d="M46.1602 80.2344C44.5352 80.2344 43.2461 79.6797 42.293 78.5703C41.3477 77.4609 40.875 75.8125 40.875 73.625C40.875 71.4141 41.3594 69.7461 42.3281 68.6211C43.2969 67.4883 44.5859 66.9219 46.1953 66.9219C46.875 66.9219 47.4688 67.0117 47.9766 67.1914C48.4844 67.3711 48.9219 67.6133 49.2891 67.918C49.6562 68.2148 49.9648 68.5547 50.2148 68.9375H50.3555C50.3242 68.6953 50.293 68.3633 50.2617 67.9414C50.2305 67.5195 50.2148 67.1758 50.2148 66.9102V61.7656H52.1602V80H50.5898L50.2969 78.1719H50.2148C49.9727 78.5547 49.6641 78.9023 49.2891 79.2148C48.9219 79.5273 48.4805 79.7773 47.9648 79.9648C47.457 80.1445 46.8555 80.2344 46.1602 80.2344ZM46.4648 78.6172C47.8398 78.6172 48.8125 78.2266 49.3828 77.4453C49.9531 76.6641 50.2383 75.5039 50.2383 73.9648V73.6133C50.2383 71.9805 49.9648 70.7266 49.418 69.8516C48.8789 68.9766 47.8945 68.5391 46.4648 68.5391C45.2695 68.5391 44.375 69 43.7812 69.9219C43.1875 70.8359 42.8906 72.0859 42.8906 73.6719C42.8906 75.25 43.1836 76.4688 43.7695 77.3281C44.3633 78.1875 45.2617 78.6172 46.4648 78.6172Z" fill="white"/>
<path d="M61.2305 66.9219C62.3242 66.9219 63.2617 67.1641 64.043 67.6484C64.8242 68.1328 65.4219 68.8125 65.8359 69.6875C66.25 70.5547 66.457 71.5703 66.457 72.7344V73.9414H57.5859C57.6094 75.4492 57.9844 76.5977 58.7109 77.3867C59.4375 78.1758 60.4609 78.5703 61.7812 78.5703C62.5938 78.5703 63.3125 78.4961 63.9375 78.3477C64.5625 78.1992 65.2109 77.9805 65.8828 77.6914V79.4023C65.2344 79.6914 64.5898 79.9023 63.9492 80.0352C63.3164 80.168 62.5664 80.2344 61.6992 80.2344C60.4648 80.2344 59.3867 79.9844 58.4648 79.4844C57.5508 78.9766 56.8398 78.2344 56.332 77.2578C55.8242 76.2812 55.5703 75.0859 55.5703 73.6719C55.5703 72.2891 55.8008 71.0938 56.2617 70.0859C56.7305 69.0703 57.3867 68.2891 58.2305 67.7422C59.082 67.1953 60.082 66.9219 61.2305 66.9219ZM61.207 68.5156C60.168 68.5156 59.3398 68.8555 58.7227 69.5352C58.1055 70.2148 57.7383 71.1641 57.6211 72.3828H64.418C64.4102 71.6172 64.2891 70.9453 64.0547 70.3672C63.8281 69.7812 63.4805 69.3281 63.0117 69.0078C62.543 68.6797 61.9414 68.5156 61.207 68.5156Z" fill="white"/>
<path d="M75.4805 68.6797H72.2812V80H70.3359V68.6797H68.0625V67.7422L70.3359 67.0977V66.2422C70.3359 65.1641 70.4961 64.2891 70.8164 63.6172C71.1367 62.9375 71.6016 62.4375 72.2109 62.1172C72.8203 61.7969 73.5625 61.6367 74.4375 61.6367C74.9297 61.6367 75.3789 61.6797 75.7852 61.7656C76.1992 61.8516 76.5625 61.9492 76.875 62.0586L76.3711 63.5938C76.1055 63.5078 75.8047 63.4297 75.4688 63.3594C75.1406 63.2812 74.8047 63.2422 74.4609 63.2422C73.7188 63.2422 73.168 63.4844 72.8086 63.9688C72.457 64.4453 72.2812 65.1953 72.2812 66.2188V67.1562H75.4805V68.6797Z" fill="white"/>
<path d="M81.4336 85.7656C79.7461 85.7656 78.4453 85.4492 77.5312 84.8164C76.6172 84.1914 76.1602 83.3125 76.1602 82.1797C76.1602 81.375 76.4141 80.6875 76.9219 80.1172C77.4375 79.5469 78.1484 79.168 79.0547 78.9805C78.7188 78.8242 78.4297 78.5898 78.1875 78.2773C77.9531 77.9648 77.8359 77.6055 77.8359 77.1992C77.8359 76.7305 77.9648 76.3203 78.2227 75.9688C78.4883 75.6094 78.8906 75.2656 79.4297 74.9375C78.7578 74.6641 78.2109 74.2031 77.7891 73.5547C77.375 72.8984 77.168 72.1367 77.168 71.2695C77.168 70.3477 77.3594 69.5625 77.7422 68.9141C78.125 68.2578 78.6797 67.7578 79.4062 67.4141C80.1328 67.0703 81.0117 66.8984 82.043 66.8984C82.2695 66.8984 82.4961 66.9102 82.7227 66.9336C82.957 66.9492 83.1797 66.9766 83.3906 67.0156C83.6016 67.0469 83.7852 67.0859 83.9414 67.1328H88.3477V68.3867L85.9805 68.6797C86.2148 68.9844 86.4102 69.3516 86.5664 69.7812C86.7227 70.2109 86.8008 70.6875 86.8008 71.2109C86.8008 72.4922 86.3672 73.5117 85.5 74.2695C84.6328 75.0195 83.4414 75.3945 81.9258 75.3945C81.5664 75.3945 81.1992 75.3633 80.8242 75.3008C80.4414 75.5117 80.1484 75.7461 79.9453 76.0039C79.75 76.2617 79.6523 76.5586 79.6523 76.8945C79.6523 77.1445 79.7266 77.3438 79.875 77.4922C80.0312 77.6406 80.2539 77.75 80.543 77.8203C80.832 77.8828 81.1797 77.9141 81.5859 77.9141H83.8477C85.2461 77.9141 86.3164 78.207 87.0586 78.793C87.8086 79.3789 88.1836 80.2344 88.1836 81.3594C88.1836 82.7812 87.6055 83.8711 86.4492 84.6289C85.293 85.3867 83.6211 85.7656 81.4336 85.7656ZM81.4922 84.2422C82.5547 84.2422 83.4336 84.1328 84.1289 83.9141C84.832 83.7031 85.3555 83.3945 85.6992 82.9883C86.0508 82.5898 86.2266 82.1133 86.2266 81.5586C86.2266 81.043 86.1094 80.6523 85.875 80.3867C85.6406 80.1289 85.2969 79.957 84.8438 79.8711C84.3906 79.7773 83.8359 79.7305 83.1797 79.7305H80.9531C80.375 79.7305 79.8711 79.8203 79.4414 80C79.0117 80.1797 78.6797 80.4453 78.4453 80.7969C78.2188 81.1484 78.1055 81.5859 78.1055 82.1094C78.1055 82.8047 78.3984 83.332 78.9844 83.6914C79.5703 84.0586 80.4062 84.2422 81.4922 84.2422ZM81.9961 73.9766C82.9258 73.9766 83.625 73.7422 84.0938 73.2734C84.5625 72.8047 84.7969 72.1211 84.7969 71.2227C84.7969 70.2617 84.5586 69.543 84.082 69.0664C83.6055 68.582 82.9023 68.3398 81.9727 68.3398C81.082 68.3398 80.3945 68.5898 79.9102 69.0898C79.4336 69.582 79.1953 70.3047 79.1953 71.2578C79.1953 72.1328 79.4375 72.8047 79.9219 73.2734C80.4062 73.7422 81.0977 73.9766 81.9961 73.9766Z" fill="white"/>
<path d="M92.8242 61.7656V67.2148C92.8242 67.5273 92.8164 67.8438 92.8008 68.1641C92.7852 68.4766 92.7578 68.7656 92.7188 69.0312H92.8477C93.1133 68.5781 93.4492 68.1992 93.8555 67.8945C94.2695 67.582 94.7383 67.3477 95.2617 67.1914C95.7852 67.0273 96.3398 66.9453 96.9258 66.9453C97.957 66.9453 98.8164 67.1094 99.5039 67.4375C100.199 67.7656 100.719 68.2734 101.062 68.9609C101.414 69.6484 101.59 70.5391 101.59 71.6328V80H99.668V71.7617C99.668 70.6914 99.4219 69.8906 98.9297 69.3594C98.4453 68.8281 97.6992 68.5625 96.6914 68.5625C95.7383 68.5625 94.9766 68.7461 94.4062 69.1133C93.8438 69.4727 93.4375 70.0039 93.1875 70.707C92.9453 71.4102 92.8242 72.2695 92.8242 73.2852V80H90.8789V61.7656H92.8242Z" fill="white"/>
<path d="M107.543 67.1562V80H105.598V67.1562H107.543ZM106.594 62.3516C106.914 62.3516 107.188 62.457 107.414 62.668C107.648 62.8711 107.766 63.1914 107.766 63.6289C107.766 64.0586 107.648 64.3789 107.414 64.5898C107.188 64.8008 106.914 64.9062 106.594 64.9062C106.258 64.9062 105.977 64.8008 105.75 64.5898C105.531 64.3789 105.422 64.0586 105.422 63.6289C105.422 63.1914 105.531 62.8711 105.75 62.668C105.977 62.457 106.258 62.3516 106.594 62.3516Z" fill="white"/>
<path d="M110.121 85.7656C109.723 85.7656 109.375 85.7344 109.078 85.6719C108.781 85.6172 108.523 85.5508 108.305 85.4727V83.8906C108.547 83.9688 108.793 84.0273 109.043 84.0664C109.293 84.1133 109.574 84.1367 109.887 84.1367C110.418 84.1367 110.848 83.9883 111.176 83.6914C111.504 83.3945 111.668 82.8555 111.668 82.0742V67.1562H113.613V82.0273C113.613 82.8086 113.488 83.4766 113.238 84.0312C112.988 84.5938 112.605 85.0234 112.09 85.3203C111.574 85.6172 110.918 85.7656 110.121 85.7656ZM111.492 63.6289C111.492 63.1914 111.602 62.8711 111.82 62.668C112.047 62.457 112.328 62.3516 112.664 62.3516C112.984 62.3516 113.258 62.457 113.484 62.668C113.719 62.8711 113.836 63.1914 113.836 63.6289C113.836 64.0586 113.719 64.3789 113.484 64.5898C113.258 64.8008 112.984 64.9062 112.664 64.9062C112.328 64.9062 112.047 64.8008 111.82 64.5898C111.602 64.3789 111.492 64.0586 111.492 63.6289Z" fill="white"/>
<path d="M119.672 61.7656V71.2344C119.672 71.5469 119.66 71.9297 119.637 72.3828C119.613 72.8281 119.594 73.2227 119.578 73.5664H119.66C119.824 73.3633 120.062 73.0625 120.375 72.6641C120.695 72.2656 120.965 71.9453 121.184 71.7031L125.449 67.1562H127.734L122.566 72.6406L128.109 80H125.766L121.23 73.918L119.672 75.3477V80H117.738V61.7656H119.672Z" fill="white"/>
<path d="M132.305 80H130.348V61.7656H132.305V80Z" fill="white"/>
<path d="M150.363 66.9219C151.777 66.9219 152.844 67.293 153.562 68.0352C154.281 68.7695 154.641 69.9531 154.641 71.5859V80H152.719V71.6797C152.719 70.6406 152.492 69.8633 152.039 69.3477C151.594 68.8242 150.93 68.5625 150.047 68.5625C148.805 68.5625 147.902 68.9219 147.34 69.6406C146.777 70.3594 146.496 71.418 146.496 72.8164V80H144.562V71.6797C144.562 70.9844 144.461 70.4062 144.258 69.9453C144.062 69.4844 143.766 69.1406 143.367 68.9141C142.977 68.6797 142.48 68.5625 141.879 68.5625C141.027 68.5625 140.344 68.7383 139.828 69.0898C139.312 69.4414 138.938 69.9648 138.703 70.6602C138.477 71.3477 138.363 72.1953 138.363 73.2031V80H136.418V67.1562H137.988L138.281 68.9727H138.387C138.645 68.5273 138.969 68.1523 139.359 67.8477C139.75 67.543 140.188 67.3125 140.672 67.1562C141.156 67 141.672 66.9219 142.219 66.9219C143.195 66.9219 144.012 67.1055 144.668 67.4727C145.332 67.832 145.812 68.3828 146.109 69.125H146.215C146.637 68.3828 147.215 67.832 147.949 67.4727C148.684 67.1055 149.488 66.9219 150.363 66.9219Z" fill="white"/>
<path d="M164.719 66.9219C166.242 66.9219 167.395 67.2969 168.176 68.0469C168.957 68.7891 169.348 69.9844 169.348 71.6328V80H167.426V71.7617C167.426 70.6914 167.18 69.8906 166.688 69.3594C166.203 68.8281 165.457 68.5625 164.449 68.5625C163.027 68.5625 162.027 68.9648 161.449 69.7695C160.871 70.5742 160.582 71.7422 160.582 73.2734V80H158.637V67.1562H160.207L160.5 69.0078H160.605C160.879 68.5547 161.227 68.1758 161.648 67.8711C162.07 67.5586 162.543 67.3242 163.066 67.168C163.59 67.0039 164.141 66.9219 164.719 66.9219Z" fill="white"/>
<path d="M184.43 73.5547C184.43 74.6094 184.293 75.5508 184.02 76.3789C183.746 77.207 183.352 77.9062 182.836 78.4766C182.32 79.0469 181.695 79.4844 180.961 79.7891C180.234 80.0859 179.41 80.2344 178.488 80.2344C177.629 80.2344 176.84 80.0859 176.121 79.7891C175.41 79.4844 174.793 79.0469 174.27 78.4766C173.754 77.9062 173.352 77.207 173.062 76.3789C172.781 75.5508 172.641 74.6094 172.641 73.5547C172.641 72.1484 172.879 70.9531 173.355 69.9688C173.832 68.9766 174.512 68.2227 175.395 67.707C176.285 67.1836 177.344 66.9219 178.57 66.9219C179.742 66.9219 180.766 67.1836 181.641 67.707C182.523 68.2305 183.207 68.9883 183.691 69.9805C184.184 70.9648 184.43 72.1562 184.43 73.5547ZM174.656 73.5547C174.656 74.5859 174.793 75.4805 175.066 76.2383C175.34 76.9961 175.762 77.582 176.332 77.9961C176.902 78.4102 177.637 78.6172 178.535 78.6172C179.426 78.6172 180.156 78.4102 180.727 77.9961C181.305 77.582 181.73 76.9961 182.004 76.2383C182.277 75.4805 182.414 74.5859 182.414 73.5547C182.414 72.5312 182.277 71.6484 182.004 70.9062C181.73 70.1562 181.309 69.5781 180.738 69.1719C180.168 68.7656 179.43 68.5625 178.523 68.5625C177.188 68.5625 176.207 69.0039 175.582 69.8867C174.965 70.7695 174.656 71.9922 174.656 73.5547Z" fill="white"/>
<path d="M193.828 66.9219C195.43 66.9219 196.707 67.4727 197.66 68.5742C198.613 69.6758 199.09 71.332 199.09 73.543C199.09 75.0039 198.871 76.2305 198.434 77.2227C197.996 78.2148 197.379 78.9648 196.582 79.4727C195.793 79.9805 194.859 80.2344 193.781 80.2344C193.102 80.2344 192.504 80.1445 191.988 79.9648C191.473 79.7852 191.031 79.543 190.664 79.2383C190.297 78.9336 189.992 78.6016 189.75 78.2422H189.609C189.633 78.5469 189.66 78.9141 189.691 79.3438C189.73 79.7734 189.75 80.1484 189.75 80.4688V85.7422H187.793V67.1562H189.398L189.656 69.0547H189.75C190 68.6641 190.305 68.3086 190.664 67.9883C191.023 67.6602 191.461 67.4023 191.977 67.2148C192.5 67.0195 193.117 66.9219 193.828 66.9219ZM193.488 68.5625C192.598 68.5625 191.879 68.7344 191.332 69.0781C190.793 69.4219 190.398 69.9375 190.148 70.625C189.898 71.3047 189.766 72.1602 189.75 73.1914V73.5664C189.75 74.6523 189.867 75.5703 190.102 76.3203C190.344 77.0703 190.738 77.6406 191.285 78.0312C191.84 78.4219 192.582 78.6172 193.512 78.6172C194.309 78.6172 194.973 78.4023 195.504 77.9727C196.035 77.543 196.43 76.9453 196.688 76.1797C196.953 75.4062 197.086 74.5195 197.086 73.5195C197.086 72.0039 196.789 70.8008 196.195 69.9102C195.609 69.0117 194.707 68.5625 193.488 68.5625Z" fill="white"/>
<path d="M211.102 85.7422V80.2344C211.102 79.9297 211.109 79.5781 211.125 79.1797C211.141 78.7812 211.168 78.4375 211.207 78.1484H211.078C210.719 78.7422 210.207 79.2383 209.543 79.6367C208.879 80.0352 208.023 80.2344 206.977 80.2344C205.406 80.2344 204.145 79.6797 203.191 78.5703C202.238 77.4609 201.762 75.8047 201.762 73.6016C201.762 72.1562 201.98 70.9375 202.418 69.9453C202.855 68.9531 203.473 68.2031 204.27 67.6953C205.074 67.1797 206.012 66.9219 207.082 66.9219C208.105 66.9219 208.941 67.125 209.59 67.5312C210.238 67.9297 210.746 68.418 211.113 68.9961H211.207L211.5 67.1562H213.047V85.7422H211.102ZM207.34 78.6172C208.246 78.6172 208.973 78.4492 209.52 78.1133C210.066 77.7695 210.465 77.2539 210.715 76.5664C210.973 75.8789 211.109 75.0234 211.125 74V73.5898C211.125 71.9336 210.844 70.6797 210.281 69.8281C209.719 68.9688 208.738 68.5391 207.34 68.5391C206.137 68.5391 205.242 69 204.656 69.9219C204.07 70.8359 203.777 72.0781 203.777 73.6484C203.777 75.2188 204.07 76.4414 204.656 77.3164C205.242 78.1836 206.137 78.6172 207.34 78.6172Z" fill="white"/>
<path d="M223.02 66.9219C223.277 66.9219 223.547 66.9375 223.828 66.9688C224.109 66.9922 224.359 67.0273 224.578 67.0742L224.332 68.8789C224.121 68.8242 223.887 68.7812 223.629 68.75C223.371 68.7188 223.129 68.7031 222.902 68.7031C222.387 68.7031 221.898 68.8086 221.438 69.0195C220.984 69.2227 220.586 69.5195 220.242 69.9102C219.898 70.293 219.629 70.7578 219.434 71.3047C219.238 71.8438 219.141 72.4453 219.141 73.1094V80H217.184V67.1562H218.801L219.012 69.5234H219.094C219.359 69.0469 219.68 68.6133 220.055 68.2227C220.43 67.8242 220.863 67.5078 221.355 67.2734C221.855 67.0391 222.41 66.9219 223.02 66.9219Z" fill="white"/>
<path d="M235.312 76.4844C235.312 77.3047 235.105 77.9961 234.691 78.5586C234.285 79.1133 233.699 79.5312 232.934 79.8125C232.176 80.0938 231.27 80.2344 230.215 80.2344C229.316 80.2344 228.539 80.1641 227.883 80.0234C227.227 79.8828 226.652 79.6836 226.16 79.4258V77.6328C226.684 77.8906 227.309 78.125 228.035 78.3359C228.762 78.5469 229.504 78.6523 230.262 78.6523C231.371 78.6523 232.176 78.4727 232.676 78.1133C233.176 77.7539 233.426 77.2656 233.426 76.6484C233.426 76.2969 233.324 75.9883 233.121 75.7227C232.926 75.4492 232.594 75.1875 232.125 74.9375C231.656 74.6797 231.008 74.3984 230.18 74.0938C229.359 73.7812 228.648 73.4727 228.047 73.168C227.453 72.8555 226.992 72.4766 226.664 72.0312C226.344 71.5859 226.184 71.0078 226.184 70.2969C226.184 69.2109 226.621 68.3789 227.496 67.8008C228.379 67.2148 229.535 66.9219 230.965 66.9219C231.738 66.9219 232.461 67 233.133 67.1562C233.812 67.3047 234.445 67.5078 235.031 67.7656L234.375 69.3242C233.844 69.0977 233.277 68.9062 232.676 68.75C232.074 68.5938 231.461 68.5156 230.836 68.5156C229.938 68.5156 229.246 68.6641 228.762 68.9609C228.285 69.2578 228.047 69.6641 228.047 70.1797C228.047 70.5781 228.156 70.9062 228.375 71.1641C228.602 71.4219 228.961 71.6641 229.453 71.8906C229.945 72.1172 230.594 72.3828 231.398 72.6875C232.203 72.9844 232.898 73.293 233.484 73.6133C234.07 73.9258 234.52 74.3086 234.832 74.7617C235.152 75.207 235.312 75.7812 235.312 76.4844Z" fill="white"/>
<path d="M242.59 78.6406C242.91 78.6406 243.238 78.6133 243.574 78.5586C243.91 78.5039 244.184 78.4375 244.395 78.3594V79.8711C244.168 79.9727 243.852 80.0586 243.445 80.1289C243.047 80.1992 242.656 80.2344 242.273 80.2344C241.594 80.2344 240.977 80.1172 240.422 79.8828C239.867 79.6406 239.422 79.2344 239.086 78.6641C238.758 78.0938 238.594 77.3047 238.594 76.2969V68.6797H236.766V67.7305L238.605 66.9688L239.379 64.1797H240.551V67.1562H244.312V68.6797H240.551V76.2383C240.551 77.043 240.734 77.6445 241.102 78.043C241.477 78.4414 241.973 78.6406 242.59 78.6406Z" fill="white"/>
<path d="M257.602 67.1562V80H256.008L255.727 78.1953H255.621C255.355 78.6406 255.012 79.0156 254.59 79.3203C254.168 79.625 253.691 79.8516 253.16 80C252.637 80.1562 252.078 80.2344 251.484 80.2344C250.469 80.2344 249.617 80.0703 248.93 79.7422C248.242 79.4141 247.723 78.9062 247.371 78.2188C247.027 77.5312 246.855 76.6484 246.855 75.5703V67.1562H248.824V75.4297C248.824 76.5 249.066 77.3008 249.551 77.832C250.035 78.3555 250.773 78.6172 251.766 78.6172C252.719 78.6172 253.477 78.4375 254.039 78.0781C254.609 77.7188 255.02 77.1914 255.27 76.4961C255.52 75.793 255.645 74.9336 255.645 73.918V67.1562H257.602Z" fill="white"/>
<path d="M264.539 80L259.664 67.1562H261.75L264.574 74.9258C264.77 75.457 264.969 76.043 265.172 76.6836C265.375 77.3242 265.516 77.8398 265.594 78.2305H265.676C265.77 77.8398 265.926 77.3242 266.145 76.6836C266.363 76.0352 266.562 75.4492 266.742 74.9258L269.566 67.1562H271.652L266.766 80H264.539Z" fill="white"/>
<path d="M284.168 79.9766L281.883 72.5C281.781 72.1797 281.684 71.8672 281.59 71.5625C281.504 71.25 281.422 70.9531 281.344 70.6719C281.273 70.3828 281.207 70.1172 281.145 69.875C281.09 69.625 281.043 69.4102 281.004 69.2305H280.922C280.891 69.4102 280.848 69.625 280.793 69.875C280.738 70.1172 280.672 70.3828 280.594 70.6719C280.523 70.9609 280.445 71.2656 280.359 71.5859C280.273 71.8984 280.176 72.2148 280.066 72.5352L277.676 79.9766H275.484L271.945 67.1328H273.961L275.812 74.2227C275.938 74.6914 276.055 75.1562 276.164 75.6172C276.281 76.0703 276.379 76.5 276.457 76.9062C276.543 77.3047 276.605 77.6523 276.645 77.9492H276.738C276.785 77.7539 276.836 77.5195 276.891 77.2461C276.953 76.9727 277.02 76.6836 277.09 76.3789C277.168 76.0664 277.25 75.7578 277.336 75.4531C277.422 75.1406 277.508 74.8477 277.594 74.5742L279.961 67.1328H282.059L284.344 74.5625C284.461 74.9375 284.574 75.3281 284.684 75.7344C284.801 76.1406 284.906 76.5352 285 76.918C285.094 77.293 285.16 77.6289 285.199 77.9258H285.293C285.324 77.6602 285.383 77.332 285.469 76.9414C285.555 76.5508 285.652 76.1211 285.762 75.6523C285.879 75.1836 286 74.707 286.125 74.2227L288 67.1328H289.98L286.43 79.9766H284.168Z" fill="white"/>
<path d="M295.383 73.4258L290.941 67.1562H293.168L296.555 72.1016L299.93 67.1562H302.133L297.691 73.4258L302.379 80H300.152L296.555 74.7617L292.934 80H290.73L295.383 73.4258Z" fill="white"/>
<path d="M302.859 67.1562H304.945L307.781 74.6094C307.945 75.0469 308.098 75.4688 308.238 75.875C308.379 76.2734 308.504 76.6562 308.613 77.0234C308.723 77.3906 308.809 77.7461 308.871 78.0898H308.953C309.062 77.6992 309.219 77.1875 309.422 76.5547C309.625 75.9141 309.844 75.2617 310.078 74.5977L312.762 67.1562H314.859L309.27 81.8867C308.973 82.6758 308.625 83.3633 308.227 83.9492C307.836 84.5352 307.359 84.9844 306.797 85.2969C306.234 85.6172 305.555 85.7773 304.758 85.7773C304.391 85.7773 304.066 85.7539 303.785 85.707C303.504 85.668 303.262 85.6211 303.059 85.5664V84.0078C303.23 84.0469 303.438 84.082 303.68 84.1133C303.93 84.1445 304.188 84.1602 304.453 84.1602C304.938 84.1602 305.355 84.0664 305.707 83.8789C306.066 83.6992 306.375 83.4336 306.633 83.082C306.891 82.7305 307.113 82.3125 307.301 81.8281L308.004 80.0234L302.859 67.1562Z" fill="white"/>
<path d="M325.16 80H315.797V78.7109L322.84 68.6797H316.242V67.1562H325.008V68.5977L318.059 78.4883H325.16V80Z" fill="white"/>
</svg>
