<svg width="736" height="542" viewBox="0 0 736 542" fill="none" xmlns="http://www.w3.org/2000/svg">
<path d="M48.6399 91H30.8479L29.4399 77.944H18.1759L16.8959 91H0.639893L12.4159 1.39996H36.8639L48.6399 91ZM23.8079 23.288L19.8399 62.328H27.7759L23.8079 23.288Z" fill="white"/>
<path d="M88.0339 44.664C93.4099 46.2 95.7139 49.656 95.7139 56.184V74.36C95.7139 85.496 90.2099 91 79.0739 91H52.4499V1.39996H78.8179C89.9539 1.39996 95.4579 6.90396 95.4579 18.04V31.352C95.4579 39.032 92.7699 42.872 88.0339 44.664ZM77.6659 19.96C77.6659 17.784 76.6419 16.76 74.4659 16.76H70.2419V38.008H74.4659C76.6419 38.008 77.6659 36.984 77.6659 34.808V19.96ZM70.2419 52.984V75.64H74.7219C76.8979 75.64 77.9219 74.616 77.9219 72.44V56.184C77.9219 54.008 76.8979 52.984 74.7219 52.984H70.2419Z" fill="white"/>
<path d="M127.818 51.448H145.482V75.128C145.482 86.264 139.978 91.768 128.842 91.768H117.834C106.698 91.768 101.194 86.264 101.194 75.128V17.272C101.194 6.13596 106.698 0.631958 117.834 0.631958H128.586C139.722 0.631958 145.226 6.13596 145.226 17.272V38.264H127.562V19.192C127.562 17.016 126.538 15.992 124.362 15.992H122.314C120.138 15.992 119.114 17.016 119.114 19.192V73.208C119.114 75.384 120.138 76.408 122.314 76.408H124.618C126.794 76.408 127.818 75.384 127.818 73.208V51.448Z" fill="white"/>
<path d="M151.45 91V1.39996H176.666C189.594 1.39996 195.866 7.67196 195.866 20.6V71.8C195.866 84.728 189.594 91 176.666 91H151.45ZM169.37 16.76V75.64H172.954C176.41 75.64 177.946 74.104 177.946 70.648V21.752C177.946 18.296 176.41 16.76 172.954 16.76H169.37Z" fill="white"/>
<path d="M201.95 1.39996H235.23V17.4H219.87V37.496H234.59V53.496H219.87V75H235.486V91H201.95V1.39996Z" fill="white"/>
<path d="M241.2 1.39996H273.84V17.4H259.12V38.392H273.2V54.392H259.12V91H241.2V1.39996Z" fill="white"/>
<path d="M305.833 55.416H300.201V40.44H323.369V75.128C323.369 86.264 317.865 91.768 306.729 91.768H295.209C284.073 91.768 278.569 86.264 278.569 75.128V17.272C278.569 6.13596 284.073 0.631958 295.209 0.631958H306.473C317.609 0.631958 323.113 6.13596 323.113 17.272V34.424H305.449V19.192C305.449 17.016 304.425 15.992 302.249 15.992H299.689C297.513 15.992 296.489 17.016 296.489 19.192V73.208C296.489 75.384 297.513 76.408 299.689 76.408H302.633C304.809 76.408 305.833 75.384 305.833 73.208V55.416Z" fill="white"/>
<path d="M347.495 37.496H356.455V1.39996H374.375V91H356.455V53.496H347.495V91H329.575V1.39996H347.495V37.496Z" fill="white"/>
<path d="M398.873 1.39996V91H380.953V1.39996H398.873Z" fill="white"/>
<path d="M431.562 1.39996V74.36C431.562 85.496 426.058 91 414.922 91H403.914V75H410.442C412.618 75 413.642 73.976 413.642 71.8V1.39996H431.562Z" fill="white"/>
<path d="M483.777 91H464.833L455.745 48.632V91H437.825V1.39996H455.745V43.512L465.729 1.39996H484.289L472.513 45.432L483.777 91Z" fill="white"/>
<path d="M487.2 1.39996H505.12V75H518.048V91H487.2V1.39996Z" fill="white"/>
<path d="M543.945 91L537.161 31.736V91H522.825V1.39996H548.681L553.801 55.672L559.305 1.39996H585.289V91H567.625V32.376L560.841 91H543.945Z" fill="white"/>
<path d="M635.476 91H618.068L606.676 42.232L606.932 65.016L607.188 91H591.7V1.39996H610.004L620.372 45.816L620.116 19.96L619.988 1.39996H635.476V91Z" fill="white"/>
<path d="M686.369 75.128C686.369 86.264 680.865 91.768 669.729 91.768H658.209C647.073 91.768 641.569 86.264 641.569 75.128V17.272C641.569 6.13596 647.073 0.631958 658.209 0.631958H669.729C680.865 0.631958 686.369 6.13596 686.369 17.272V75.128ZM668.449 19.192C668.449 17.016 667.425 15.992 665.249 15.992H662.689C660.513 15.992 659.489 17.016 659.489 19.192V73.208C659.489 75.384 660.513 76.408 662.689 76.408H665.249C667.425 76.408 668.449 75.384 668.449 73.208V19.192Z" fill="white"/>
<path d="M710.495 59.896V91H692.575V1.39996H718.815C729.951 1.39996 735.455 6.90396 735.455 18.04V43.256C735.455 54.392 729.951 59.896 718.815 59.896H710.495ZM717.535 19.96C717.535 17.784 716.511 16.76 714.335 16.76H710.495V44.536H714.335C716.511 44.536 717.535 43.512 717.535 41.336V19.96Z" fill="white"/>
<path d="M47.7439 126.272V182.848C47.7439 189.376 45.8239 193.472 42.1119 195.776L50.0479 199.104L41.5999 212.288L22.6559 200.768H19.5839C8.44789 200.768 2.94389 195.264 2.94389 184.128V126.272C2.94389 115.136 8.44789 109.632 19.5839 109.632H31.1039C42.2399 109.632 47.7439 115.136 47.7439 126.272ZM29.8239 182.208V128.192C29.8239 126.016 28.7999 124.992 26.6239 124.992H24.0639C21.8879 124.992 20.8639 126.016 20.8639 128.192V182.208C20.8639 184.384 21.8879 185.408 24.0639 185.408H26.6239C28.7999 185.408 29.8239 184.384 29.8239 182.208Z" fill="white"/>
<path d="M89.6619 157.632C95.1659 159.168 97.4699 162.624 97.4699 169.152V200H79.5499V169.28C79.5499 167.104 78.5259 166.08 76.3499 166.08H71.8699V200H53.9499V110.4H80.7019C91.8379 110.4 97.3419 115.904 97.3419 127.04V144.32C97.3419 152 94.5259 155.84 89.6619 157.632ZM79.4219 129.216C79.4219 127.04 78.3979 126.016 76.2219 126.016H71.8699V150.848H76.2219C78.3979 150.848 79.4219 149.824 79.4219 147.648V129.216Z" fill="white"/>
<path d="M139.034 153.536C144.538 157.504 146.202 160.96 146.202 167.616V184.128C146.202 195.264 140.698 200.768 129.562 200.768H119.578C108.442 200.768 102.938 195.264 102.938 184.128V165.056H120.474V182.464C120.474 184.64 121.498 185.664 123.674 185.664H125.338C127.514 185.664 128.538 184.64 128.538 182.464V171.712C128.538 168.896 127.642 167.488 125.466 165.952L110.106 154.56C104.602 150.592 102.938 146.88 102.938 140.48V126.272C102.938 115.136 108.442 109.632 119.578 109.632H129.306C140.442 109.632 145.946 115.136 145.946 126.272V142.656H128.41V127.936C128.41 125.76 127.386 124.736 125.21 124.736H123.802C121.626 124.736 120.602 125.76 120.602 127.936V136.384C120.602 139.2 121.498 140.608 123.674 142.144L139.034 153.536Z" fill="white"/>
<path d="M177.83 200H159.91V126.4H149.03V110.4H188.71V126.4H177.83V200Z" fill="white"/>
<path d="M237.232 110.4V184.128C237.232 195.264 231.728 200.768 220.592 200.768H209.712C198.576 200.768 193.072 195.264 193.072 184.128V110.4H210.992V182.208C210.992 184.384 212.016 185.408 214.192 185.408H216.112C218.288 185.408 219.312 184.384 219.312 182.208V110.4H237.232Z" fill="white"/>
<path d="M276.474 200H252.922L240.89 110.4H259.066L265.338 174.016L271.866 110.4H288.506L276.474 200Z" fill="white"/>
<path d="M316.05 110.4H332.946L338.066 158.016L342.674 110.4H358.546L347.666 200H327.954L323.218 159.168L318.738 200H299.026L288.146 110.4H306.322L310.93 158.4L316.05 110.4Z" fill="white"/>
<path d="M405.241 110.4L394.233 153.664L405.497 200H386.809L381.433 172.352L375.417 200H358.393L369.529 156.736L358.649 110.4H377.337L382.329 137.792L388.217 110.4H405.241Z" fill="white"/>
<path d="M435.896 168.128V200H417.976V169.408L402.872 110.4H421.56L427.576 140.864L433.976 110.4H451L435.896 168.128Z" fill="white"/>
<path d="M471.492 126.4H453.188V110.4H488.644V128.96L469.7 184H488.644V200H452.548V181.44L471.492 126.4Z" fill="white"/>
<path d="M26.6239 219.016V309H9.08789V239.88H0.639893V227.464L1.79189 227.336C6.78389 226.824 9.08789 224.904 12.0319 221.064L13.5679 219.016H26.6239Z" fill="white"/>
<path d="M39.4689 273.8L53.9329 255.624C56.1089 252.808 57.0049 251.016 57.0049 248.2V237.192C57.0049 235.016 55.9809 233.992 53.8049 233.992H52.6529C50.4769 233.992 49.4529 235.016 49.4529 237.192V252.04H32.5569V235.272C32.5569 224.136 38.0609 218.632 49.1969 218.632H58.0289C69.1649 218.632 74.6689 224.136 74.6689 235.272V248.712C74.6689 255.112 73.0049 259.848 67.5009 266.76L53.0369 284.936C50.8609 287.752 49.9649 289.544 49.9649 292.36V293H74.6689V309H32.3009V291.848C32.3009 285.192 33.9649 280.712 39.4689 273.8Z" fill="white"/>
<path d="M104.267 291.208V274.568C104.267 272.392 103.243 271.368 101.067 271.368H87.4989V255.624H100.811C102.987 255.624 104.011 254.6 104.011 252.424V237.192C104.011 235.016 102.987 233.992 100.811 233.992H99.4029C97.2269 233.992 96.2029 235.016 96.2029 237.192V247.944H79.3069V235.272C79.3069 224.136 84.8109 218.632 95.9469 218.632H105.163C116.299 218.632 121.803 224.136 121.803 235.272V249.352C121.803 257.032 119.115 260.872 114.379 262.664C119.755 264.2 122.059 267.656 122.059 274.184V293.128C122.059 304.264 116.555 309.768 105.419 309.768H95.6909C84.5549 309.768 79.0509 304.264 79.0509 293.128V278.792H95.9469V291.208C95.9469 293.384 96.9709 294.408 99.1469 294.408H101.067C103.243 294.408 104.267 293.384 104.267 291.208Z" fill="white"/>
<path d="M126.033 295.432V277.384L140.753 219.4H165.201V279.944H171.729V295.432H165.201V309H149.073V295.432H126.033ZM149.073 279.944V241.672L139.601 279.944H149.073Z" fill="white"/>
<path d="M217.949 264.072V293.128C217.949 304.264 212.445 309.768 201.309 309.768H191.581C180.445 309.768 174.941 304.264 174.941 293.128V276.872H192.221V291.208C192.221 293.384 193.245 294.408 195.421 294.408H197.085C199.261 294.408 200.285 293.384 200.285 291.208V269.576C200.285 267.272 199.389 265.864 197.085 265.864C195.037 265.864 193.629 267.144 191.709 269.576H175.453V219.4H216.669V235.4H192.093L191.837 254.6C195.293 251.528 198.365 249.608 204.125 249.608H204.381C212.701 249.608 217.949 255.112 217.949 264.072Z" fill="white"/>
<path d="M241.111 237.192V256.008C244.183 254.6 247.639 253.576 251.735 253.576H252.375C261.463 253.576 266.839 259.592 266.839 268.424V293.128C266.839 304.264 261.335 309.768 250.199 309.768H239.959C228.823 309.768 223.319 304.264 223.319 293.128V235.272C223.319 224.136 228.823 218.632 239.959 218.632H249.815C260.951 218.632 266.455 224.136 266.455 235.272V247.56H249.175V237.192C249.175 235.016 248.151 233.992 245.975 233.992H244.311C242.135 233.992 241.111 235.016 241.111 237.192ZM241.111 269.832V291.208C241.111 293.384 242.135 294.408 244.311 294.408H245.975C248.151 294.408 249.175 293.384 249.175 291.208V272.008C249.175 269.96 248.535 269.064 245.975 269.064C244.055 269.064 242.135 269.448 241.111 269.832Z" fill="white"/>
<path d="M291.132 235.4H270.524V219.4H308.284V237.96L292.668 309H274.748L291.132 235.4Z" fill="white"/>
<path d="M329.331 218.632H339.059C350.195 218.632 355.699 224.136 355.699 235.272V249.096C355.699 256.776 353.011 260.616 348.275 262.408C353.651 263.944 355.955 267.4 355.955 273.928V293.128C355.955 304.264 350.451 309.768 339.315 309.768H329.075C317.939 309.768 312.435 304.264 312.435 293.128V273.928C312.435 267.4 314.739 263.944 320.115 262.408C315.379 260.616 312.691 256.776 312.691 249.096V235.272C312.691 224.136 318.195 218.632 329.331 218.632ZM329.971 273.8V291.464C329.971 293.64 330.995 294.664 333.171 294.664H335.219C337.395 294.664 338.419 293.64 338.419 291.464V273.8C338.419 271.624 337.395 270.6 335.219 270.6H333.171C330.995 270.6 329.971 271.624 329.971 273.8ZM333.299 255.752H335.091C337.267 255.752 338.291 254.728 338.291 252.552V236.936C338.291 234.76 337.267 233.736 335.091 233.736H333.299C331.123 233.736 330.099 234.76 330.099 236.936V252.552C330.099 254.728 331.123 255.752 333.299 255.752Z" fill="white"/>
<path d="M383.716 294.408C385.892 294.408 386.916 293.384 386.916 291.208V273.544C383.844 274.952 380.388 275.848 376.42 275.848H375.78C366.692 275.848 361.316 269.832 361.316 261V235.272C361.316 224.136 366.82 218.632 377.956 218.632H388.068C399.204 218.632 404.708 224.136 404.708 235.272V293.128C404.708 304.264 399.204 309.768 388.068 309.768H378.084C366.948 309.768 361.444 304.264 361.444 293.128V281.864H378.724V291.208C378.724 293.384 379.748 294.408 381.924 294.408H383.716ZM386.916 259.592V237.192C386.916 235.016 385.892 233.992 383.716 233.992H382.18C380.004 233.992 378.98 235.016 378.98 237.192V257.416C378.98 259.464 379.62 260.36 382.18 260.36C384.1 260.36 385.892 259.976 386.916 259.592Z" fill="white"/>
<path d="M454.857 293.128C454.857 304.264 449.353 309.768 438.217 309.768H427.209C416.073 309.768 410.569 304.264 410.569 293.128V235.272C410.569 224.136 416.073 218.632 427.209 218.632H438.217C449.353 218.632 454.857 224.136 454.857 235.272V293.128ZM437.065 237.192C437.065 235.016 436.041 233.992 433.865 233.992H431.561C429.385 233.992 428.361 235.016 428.361 237.192V291.208C428.361 293.384 429.385 294.408 431.561 294.408H433.865C436.041 294.408 437.065 293.384 437.065 291.208V237.192Z" fill="white"/>
<path d="M476.694 289.288V309H460.054V289.288H476.694Z" fill="white"/>
<path d="M497.944 289.288V300.68C497.944 309.768 497.048 311.816 491.288 319.624L487.96 324.104L481.176 322.184L482.968 318.472C485.144 313.992 486.296 311.432 486.936 309H481.304V289.288H497.944Z" fill="white"/>
<path d="M515.763 255.88V242.056C515.763 232.968 516.403 230.92 522.163 223.112L525.491 218.632L532.019 220.552L530.227 224.264C527.283 230.28 526.131 232.84 525.747 236.168H531.891V255.88H515.763ZM495.923 255.88V242.056C495.923 232.968 496.563 230.92 502.323 223.112L505.651 218.632L512.179 220.552L510.387 224.264C507.443 230.28 506.291 232.84 505.907 236.168H512.051V255.88H495.923Z" fill="white"/>
<path d="M552.682 219.4V233.224C552.682 242.312 552.042 244.36 546.282 252.168L542.954 256.648L536.426 254.728L538.218 251.016C541.162 245.128 542.314 242.568 542.698 239.112H536.554V219.4H552.682ZM572.522 219.4V233.224C572.522 242.312 571.882 244.36 566.122 252.168L562.794 256.648L556.266 254.728L558.058 251.016C561.002 245.128 562.154 242.568 562.538 239.112H556.394V219.4H572.522Z" fill="white"/>
<path d="M617.121 309L613.025 301.704C610.209 307.208 606.497 309.768 598.945 309.768H592.161C581.793 309.768 576.545 304.52 576.545 294.152V276.104C576.545 269.832 577.953 264.968 582.561 261L587.553 256.648L584.609 251.272C581.921 246.28 581.537 243.208 581.537 238.088V235.272C581.537 224.136 587.041 218.632 598.177 218.632H605.857C616.993 218.632 622.497 224.136 622.497 235.272V247.176H605.985V237.064C605.985 234.888 604.961 233.864 602.785 233.864H601.505C599.329 233.864 598.305 234.888 598.305 237.064V238.856C598.305 242.184 599.201 244.36 600.865 247.432L612.001 267.912L615.841 255.88H633.377L622.753 285.448L635.553 309H617.121ZM598.561 294.92C600.353 294.92 601.505 294.152 602.273 292.104L604.193 287.24L595.617 271.624C593.953 273.16 593.441 274.568 593.441 277.384V292.104C593.441 294.024 594.337 294.92 596.257 294.92H598.561Z" fill="white"/>
<path d="M642.192 272.52V259.592C645.392 255.88 648.976 254.856 651.664 254.856H652.048C654.48 254.856 656.528 255.496 658.576 256.136L660.88 256.904C663.952 258.056 666 258.44 667.536 258.44H667.92C669.84 258.44 673.04 258.056 677.008 254.088V267.016C673.808 270.728 670.224 271.752 667.536 271.752H667.152C664.72 271.752 662.672 271.112 660.624 270.472L658.32 269.704C655.248 268.552 653.2 268.168 651.664 268.168H651.28C649.36 268.168 646.16 268.552 642.192 272.52Z" fill="white"/>
<path d="M2.30389 407.12V390.992C2.30389 383.056 4.73589 379.728 11.7759 377.296L25.5999 372.56V362.576C25.5999 360.656 24.7039 359.76 22.7839 359.76H21.7599C19.8399 359.76 18.6879 360.656 18.6879 362.576V371.28H3.07189V361.168C3.07189 350.8 8.31989 345.552 18.6879 345.552H26.6239C36.9919 345.552 42.2399 350.8 42.2399 361.168V418H25.8559V413.264C21.8879 416.592 18.5599 418.768 13.4399 418.768H13.1839C6.27189 418.768 2.30389 414.672 2.30389 407.12ZM21.6319 404.176C23.1679 404.176 24.5759 403.92 25.5999 403.536V386L20.8639 388.176C19.0719 389.072 18.4319 389.84 18.4319 392.144V401.36C18.4319 403.28 19.3279 404.176 21.6319 404.176Z" fill="white"/>
<path d="M47.6909 418V327.12H64.5869V351.312C68.2989 347.984 71.8829 345.552 76.8749 345.552H77.1309C84.5549 345.552 88.9069 349.776 88.9069 357.968V406.352C88.9069 414.544 84.5549 418.768 77.1309 418.768H76.8749C71.8829 418.768 68.0429 416.72 64.3309 413.776V418H47.6909ZM64.5869 361.168V403.152C65.6109 403.536 66.8909 403.92 68.6829 403.92C71.1149 403.92 72.0109 403.024 72.0109 401.104V363.216C72.0109 361.296 71.1149 360.4 68.6829 360.4C66.8909 360.4 65.6109 360.784 64.5869 361.168Z" fill="white"/>
<path d="M117.868 376.016V363.216C117.868 361.296 116.972 360.4 115.052 360.4H113.772C111.852 360.4 110.956 361.296 110.956 363.216V401.104C110.956 403.024 111.852 403.92 113.772 403.92H115.18C117.1 403.92 117.996 403.024 117.996 401.104V386H134.508V403.152C134.508 413.52 129.26 418.768 118.892 418.768H109.676C99.3079 418.768 94.0599 413.52 94.0599 403.152V361.168C94.0599 350.8 99.3079 345.552 109.676 345.552H118.764C129.132 345.552 134.38 350.8 134.38 361.168V376.016H117.868Z" fill="white"/>
<path d="M180.526 327.12V418H163.886V413.008C160.174 416.336 156.334 418.768 151.342 418.768H151.086C143.662 418.768 139.31 414.544 139.31 406.352V357.968C139.31 349.776 143.662 345.552 151.086 345.552H151.342C156.334 345.552 159.918 347.6 163.63 350.544V327.12H180.526ZM163.63 403.152V361.168C162.606 360.784 161.326 360.4 159.534 360.4C157.102 360.4 156.206 361.296 156.206 363.216V401.104C156.206 403.024 157.102 403.92 159.534 403.92C161.326 403.92 162.606 403.536 163.63 403.152Z" fill="white"/>
<path d="M225.871 388.944H202.575V401.36C202.575 403.28 203.471 404.176 205.391 404.176H206.927C208.847 404.176 209.743 403.28 209.743 401.36V394.576H225.871V403.152C225.871 413.52 220.623 418.768 210.255 418.768H201.551C191.183 418.768 185.935 413.52 185.935 403.152V361.168C185.935 350.8 191.183 345.552 201.551 345.552H210.255C220.623 345.552 225.871 350.8 225.871 361.168V388.944ZM202.575 362.704V375.888H209.487V362.704C209.487 360.784 208.591 359.888 206.671 359.888H205.391C203.471 359.888 202.575 360.784 202.575 362.704Z" fill="white"/>
<path d="M233.12 346.32V341.072C233.12 331.728 237.728 327.12 247.072 327.12H258.208V340.944H252.448C250.784 340.944 250.016 341.712 250.016 343.376V346.32H257.824V360.4H250.016V418H233.12V360.4H229.152V346.32H233.12Z" fill="white"/>
<path d="M301.651 346.32V417.616C301.651 427.856 296.787 432.592 286.547 432.592H274.131C264.915 432.592 260.563 428.368 260.563 419.152V414.672H275.667V417.232C275.667 419.152 276.563 420.048 278.483 420.048H282.195C284.115 420.048 285.011 419.152 285.011 417.232V406.48C281.299 409.424 277.459 411.472 272.467 411.472H272.211C264.787 411.472 260.435 407.248 260.435 399.056V357.968C260.435 349.776 264.787 345.552 272.211 345.552H272.467C277.459 345.552 281.299 347.6 285.011 350.544V346.32H301.651ZM284.755 396.496V361.168C283.731 360.784 282.451 360.4 280.659 360.4C278.227 360.4 277.331 361.296 277.331 363.216V394.448C277.331 396.368 278.227 397.264 280.659 397.264C282.451 397.264 283.731 396.88 284.755 396.496Z" fill="white"/>
<path d="M307.316 418V327.12H324.212V351.056C327.924 347.856 331.252 345.552 336.244 345.552H337.524C344.308 345.552 348.276 349.392 348.276 357.2V418H331.38V363.216C331.38 361.296 330.484 360.4 328.052 360.4C326.516 360.4 325.236 360.784 324.212 361.168V418H307.316Z" fill="white"/>
<path d="M353.688 341.84V327.12H371.096V341.84H353.688ZM353.944 418V346.32H370.84V418H353.944Z" fill="white"/>
<path d="M376.694 341.84V327.12H394.102V341.84H376.694ZM393.846 346.32V418.384C393.846 427.728 389.238 432.336 379.894 432.336H372.342V418.768H374.518C376.182 418.768 376.95 418 376.95 416.336V346.32H393.846Z" fill="white"/>
<path d="M424.27 346.32H441.806L432.59 381.392L441.422 418H423.502L416.462 384.08V418H399.566V327.12H416.462V380.112L424.27 346.32Z" fill="white"/>
<path d="M444.569 418V327.12H461.465V418H444.569Z" fill="white"/>
<path d="M508.023 361.168V418H491.127V363.216C491.127 361.296 490.359 360.4 488.055 360.4C486.263 360.4 485.111 360.784 484.087 361.168V418H467.191V346.32H483.831V351.056C487.543 347.856 491.255 345.552 496.247 345.552H497.271C502.135 345.552 505.591 347.6 507.127 351.696C511.095 347.856 514.807 345.552 520.183 345.552H521.207C527.991 345.552 531.959 349.392 531.959 357.2V418H515.063V363.216C515.063 361.296 514.295 360.4 511.991 360.4C510.199 360.4 509.047 360.784 508.023 361.168Z" fill="white"/>
<path d="M537.441 418V346.32H554.081V351.056C557.793 347.856 561.377 345.552 566.369 345.552H567.649C574.433 345.552 578.401 349.392 578.401 357.2V418H561.505V363.216C561.505 361.296 560.609 360.4 558.177 360.4C556.641 360.4 555.361 360.784 554.337 361.168V418H537.441Z" fill="white"/>
<path d="M609.285 418.768H599.301C588.933 418.768 583.685 413.52 583.685 403.152V361.168C583.685 350.8 588.933 345.552 599.301 345.552H609.285C619.653 345.552 624.901 350.8 624.901 361.168V403.152C624.901 413.52 619.653 418.768 609.285 418.768ZM605.189 360.4H603.397C601.477 360.4 600.581 361.296 600.581 363.216V401.104C600.581 403.024 601.477 403.92 603.397 403.92H605.189C607.109 403.92 608.005 403.024 608.005 401.104V363.216C608.005 361.296 607.109 360.4 605.189 360.4Z" fill="white"/>
<path d="M671.532 406.352C671.532 414.544 667.18 418.768 659.756 418.768H659.5C654.508 418.768 650.924 416.72 647.212 413.776V432.08H630.316V346.32H646.956V351.312C650.668 347.984 654.508 345.552 659.5 345.552H659.756C667.18 345.552 671.532 349.776 671.532 357.968V406.352ZM654.636 363.216C654.636 361.296 653.74 360.4 651.308 360.4C649.516 360.4 648.236 360.784 647.212 361.168V403.152C648.236 403.536 649.516 403.92 651.308 403.92C653.74 403.92 654.636 403.024 654.636 401.104V363.216Z" fill="white"/>
<path d="M717.901 346.32V432.08H701.005V413.008C697.293 416.336 693.709 418.768 688.717 418.768H688.461C681.037 418.768 676.685 414.544 676.685 406.352V357.968C676.685 349.776 681.037 345.552 688.461 345.552H688.717C693.709 345.552 697.549 347.6 701.261 350.544V346.32H717.901ZM701.005 403.152V361.168C699.981 360.784 698.701 360.4 696.909 360.4C694.477 360.4 693.581 361.296 693.581 363.216V401.104C693.581 403.024 694.477 403.92 696.909 403.92C698.701 403.92 699.981 403.536 701.005 403.152Z" fill="white"/>
<path d="M2.81589 527V455.32H19.4559V463.128C22.2719 457.368 24.9599 454.68 29.8239 454.68V472.984C25.3439 473.368 22.2719 474.52 19.7119 476.824V527H2.81589Z" fill="white"/>
<path d="M55.7189 480.92V471.704C55.7189 469.784 54.8229 468.888 52.9029 468.888H51.7509C49.8309 468.888 48.9349 469.784 48.9349 471.704V476.696C48.9349 478.744 49.5749 479.64 51.3669 480.792L64.4229 488.856C69.6709 492.184 72.1029 495.256 72.1029 501.784V512.152C72.1029 522.52 66.8549 527.768 56.4869 527.768H48.4229C38.0549 527.768 32.8069 522.52 32.8069 512.152V500.888H49.0629V510.616C49.0629 512.536 49.9589 513.432 51.8789 513.432H53.2869C55.2069 513.432 56.1029 512.536 56.1029 510.616V505.24C56.1029 503.192 55.4629 502.296 53.6709 501.144L40.6149 493.08C35.3669 489.752 32.9349 486.68 32.9349 480.152V470.168C32.9349 459.8 38.1829 454.552 48.5509 454.552H56.3589C66.7269 454.552 71.9749 459.8 71.9749 470.168V480.92H55.7189Z" fill="white"/>
<path d="M96.3999 469.4V527H79.5039V469.4H74.8959V455.32H79.5039V443.8H96.3999V455.32H103.056V469.4H96.3999Z" fill="white"/>
<path d="M147.523 455.32V527H130.883V522.264C127.171 525.464 123.587 527.768 118.595 527.768H117.315C110.531 527.768 106.563 523.928 106.563 516.12V455.32H123.459V510.104C123.459 512.024 124.355 512.92 126.787 512.92C128.323 512.92 129.603 512.536 130.627 512.152V455.32H147.523Z" fill="white"/>
<path d="M183.271 527H161.511L150.759 455.32H167.527L172.903 498.968L178.279 455.32H194.023L183.271 527Z" fill="white"/>
<path d="M229.108 527L224.884 495.256L220.66 527H203.508L193.012 455.32H209.524L213.492 494.36L218.228 455.32H232.82L237.428 493.976L241.524 455.32H256.756L246.26 527H229.108Z" fill="white"/>
<path d="M271.503 527H255.503L265.487 492.696L255.759 455.32H273.423L277.391 476.312L282.255 455.32H298.255L288.527 489.624L298.511 527H280.847L276.623 505.752L271.503 527Z" fill="white"/>
<path d="M322.207 541.08H306.207L310.559 522.008L297.375 455.32H314.143L319.007 488.856L325.279 455.32H341.279L322.207 541.08Z" fill="white"/>
<path d="M360.072 469.4H343.304V455.32H377.48V469.4L360.072 512.92H377.48V527H342.664V512.92L360.072 469.4Z" fill="white"/>
</svg>
