<svg xmlns="http://www.w3.org/2000/svg" width="414.437" height="58.092" viewBox="0 0 414.437 58.092">
  <g id="Group_5263" data-name="Group 5263" transform="translate(-140.097 -31.018)">
    <g id="box_mark_orange_white" transform="translate(-7 -5.982)">
      <rect id="Rectangle_8" data-name="Rectangle 8" width="69" height="58.092" transform="translate(147.097 37)" fill="#ff8200"/>
      <g id="Group_5256" transform="translate(156.097 44.5)">
        <path id="Path_5222" d="M27.451,6.5l-3.6.112-.337,1.124H21.271l-.225.449A28.457,28.457,0,0,0,7,13.017l12.473-.449-.337,1.011,3.259-.112L17.226,36.84l4.495-1.461,4.27-22.025h2.472l.337-1.124,15.844-.449c-2.922-1.8-10.45-3.708-14.721-3.708l.112-.562-2.809.112Z" fill="#fff"/>
        <path id="Path_5223" d="M22.3,31.2c.1,0,.1,0,.1-.1h0c0-.1,0-.1-.1-.1h-.1v.2Zm.1.1.1.2h-.1l-.1-.2h-.1v.2H22v-.7h.3c.2,0,.2.1.2.2h0c0,.2,0,.2-.1.3m.3-.1a.5.5,0,1,0-.5.5.472.472,0,0,0,.5-.5h0m.2,0a.6.6,0,1,1-.6-.6h0a.576.576,0,0,1,.6.6" transform="translate(1.886 3.34)" fill="#fff"/>
      </g>
    </g>
    <path id="Path_5239" data-name="Path 5239" d="M4.26,0V-12.06H6.18V-14H.2v1.94H2.12V0Zm8.9-8.1V-14H11.02V0h2.14V-6.16h2.06V0h2.14V-14H15.22v5.9ZM22.64-14V0h4.8V-1.94H24.78V-6.16H27.3V-8.1H24.78v-3.96H27.4V-14Zm22.7,0H43.2V-2.58c0,.56-.26.82-.8.82h-.34a.715.715,0,0,1-.62-.2.715.715,0,0,1-.2-.62V-14H39.1V-2.48a2.293,2.293,0,0,0,.648,1.952A2.293,2.293,0,0,0,41.7.12h1.04a2.293,2.293,0,0,0,1.952-.648A2.293,2.293,0,0,0,45.34-2.48ZM57,0V-14H55.08v6.3l.02,2.34L53.1-14H50.6V0h1.92V-6.96L52.5-9.42,54.68,0Zm7.44-14H62.3V0h2.14ZM74.02.02,76.1-14H74.06L72.76-3.56,71.5-14H69.34L71.4.02ZM80.96-14V0h4.8V-1.94H83.1V-6.16h2.52V-8.1H83.1v-3.96h2.62V-14ZM95.8-6.6a2,2,0,0,0,1.22-2.16V-11.4a2.293,2.293,0,0,0-.648-1.952A2.293,2.293,0,0,0,94.42-14H90.9V0h2.14V-5.62H94c.62,0,.9.28.9.9V0h2.14V-4.76C97.04-5.82,96.68-6.36,95.8-6.6Zm-.92-4.7v2.96c0,.58-.28.86-.88.86h-.96V-12.1h1.04a.7.7,0,0,1,.6.2.7.7,0,0,1,.2.6ZM107.1-7.18l-2.16-1.58a1.211,1.211,0,0,1-.6-1.14v-1.56a.7.7,0,0,1,.2-.6.7.7,0,0,1,.6-.2h.26a.7.7,0,0,1,.6.2.7.7,0,0,1,.2.6V-9h2.1v-2.54a2.28,2.28,0,0,0-.645-1.935,2.28,2.28,0,0,0-1.935-.645h-.9a2.293,2.293,0,0,0-1.952.648,2.293,2.293,0,0,0-.648,1.952V-9.6a2.571,2.571,0,0,0,1.24,2.42l2.16,1.58a1.232,1.232,0,0,1,.6,1.14v1.92c0,.54-.26.8-.82.8h-.28c-.56,0-.82-.26-.82-.8V-5.42h-2.08v2.96a2.273,2.273,0,0,0,.641,1.939A2.273,2.273,0,0,0,104.8.12h.94a2.293,2.293,0,0,0,1.952-.648,2.293,2.293,0,0,0,.648-1.952V-4.76a2.552,2.552,0,0,0-1.24-2.42ZM115.66-14h-2.14V0h2.14Zm8.92,14V-12.06h1.92V-14h-5.98v1.94h1.92V0Zm12.84-14h-2.06l-1.28,5.96L132.88-14h-2.2l2.3,9.24V0h2.14V-4.98ZM154.96-2.48v-9.04a2.293,2.293,0,0,0-.648-1.952,2.293,2.293,0,0,0-1.952-.648h-1.14a2.293,2.293,0,0,0-1.952.648,2.293,2.293,0,0,0-.648,1.952v9.04a2.293,2.293,0,0,0,.648,1.952A2.293,2.293,0,0,0,151.22.12h1.14a2.293,2.293,0,0,0,1.952-.648,2.293,2.293,0,0,0,.648-1.952Zm-2.14-8.94v8.84c0,.56-.26.82-.8.82h-.44a.715.715,0,0,1-.62-.2.715.715,0,0,1-.2-.62v-8.84a.715.715,0,0,1,.2-.62.715.715,0,0,1,.62-.2h.44C152.56-12.24,152.82-11.98,152.82-11.42ZM160.2-14V0h2.14V-6.08h2.42V-8.02h-2.42v-4.04h2.52V-14ZM180.08,0V-12.06H182V-14h-5.98v1.94h1.92V0Zm6.76-14V0h4.8V-1.94h-2.66V-6.16h2.52V-8.1h-2.52v-3.96h2.62V-14ZM203-14h-2.06l-1.2,5-1.16-5h-2.2l1.92,7.1L196.34,0h2.06l1.26-5.02L200.84,0h2.2l-1.96-7.08Zm9.08-.02h-2.84L207.24,0h1.98l.26-2.2h2.22l.28,2.2h2.12Zm-1.5,2.84.88,7.08h-1.74Zm13.12,4-2.16-1.58a1.211,1.211,0,0,1-.6-1.14v-1.56a.7.7,0,0,1,.2-.6.7.7,0,0,1,.6-.2H222a.7.7,0,0,1,.6.2.7.7,0,0,1,.2.6V-9h2.1v-2.54a2.28,2.28,0,0,0-.645-1.935,2.28,2.28,0,0,0-1.935-.645h-.9a2.293,2.293,0,0,0-1.952.648,2.293,2.293,0,0,0-.648,1.952V-9.6a2.571,2.571,0,0,0,1.24,2.42l2.16,1.58a1.232,1.232,0,0,1,.6,1.14v1.92c0,.54-.26.8-.82.8h-.28c-.56,0-.82-.26-.82-.8V-5.42h-2.08v2.96a2.273,2.273,0,0,0,.641,1.939A2.273,2.273,0,0,0,221.4.12h.94a2.293,2.293,0,0,0,1.952-.648,2.293,2.293,0,0,0,.648-1.952V-4.76a2.552,2.552,0,0,0-1.24-2.42Zm17.38-6.84h-2.84L236.24,0h1.98l.26-2.2h2.22l.28,2.2h2.12Zm-1.5,2.84.88,7.08h-1.74ZM250.8,0V-12.06h1.92V-14h-5.98v1.94h1.92V0Zm13.3-14V0h4.8V-1.94h-2.66V-6.16h2.52V-8.1h-2.52v-3.96h2.62V-14Zm9.94,0V0h4.5V-1.94h-2.36V-14ZM292.2-5.08h1.22a2.293,2.293,0,0,0,1.952-.648,2.293,2.293,0,0,0,.648-1.952V-11.4a2.293,2.293,0,0,0-.648-1.952A2.293,2.293,0,0,0,293.42-14h-3.36V0h2.14Zm1.68-6.22v3.52c0,.56-.26.82-.8.82h-.88v-5.16h.88c.54,0,.8.26.8.82Zm11.14-2.72h-2.84L300.18,0h1.98l.26-2.2h2.22l.28,2.2h2.12Zm-1.5,2.84.88,7.08h-1.74Zm13.12,4-2.16-1.58a1.211,1.211,0,0,1-.6-1.14v-1.56a.7.7,0,0,1,.2-.6.7.7,0,0,1,.6-.2h.26a.7.7,0,0,1,.6.2.7.7,0,0,1,.2.6V-9h2.1v-2.54a2.28,2.28,0,0,0-.645-1.935,2.28,2.28,0,0,0-1.935-.645h-.9a2.293,2.293,0,0,0-1.952.648,2.293,2.293,0,0,0-.648,1.952V-9.6A2.571,2.571,0,0,0,313-7.18l2.16,1.58a1.232,1.232,0,0,1,.6,1.14v1.92c0,.54-.26.8-.82.8h-.28c-.56,0-.82-.26-.82-.8V-5.42h-2.08v2.96A2.273,2.273,0,0,0,312.4-.521,2.273,2.273,0,0,0,314.34.12h.94a2.293,2.293,0,0,0,1.952-.648,2.293,2.293,0,0,0,.648-1.952V-4.76a2.552,2.552,0,0,0-1.24-2.42Zm12.7,4.7v-9.04a2.293,2.293,0,0,0-.648-1.952,2.293,2.293,0,0,0-1.952-.648H325.6a2.293,2.293,0,0,0-1.952.648A2.293,2.293,0,0,0,323-11.52v9.04a2.293,2.293,0,0,0,.648,1.952A2.293,2.293,0,0,0,325.6.12h1.14a2.293,2.293,0,0,0,1.952-.648,2.293,2.293,0,0,0,.648-1.952Zm-2.14-8.94v8.84c0,.56-.26.82-.8.82h-.44a.715.715,0,0,1-.62-.2.715.715,0,0,1-.2-.62v-8.84a.715.715,0,0,1,.2-.62.715.715,0,0,1,.62-.2h.44c.54,0,.8.26.8.82Z" transform="translate(225.17 66.064)" fill="#fff"/>
  </g>
</svg>
