<svg xmlns="http://www.w3.org/2000/svg" width="47.511" height="40" viewBox="0 0 47.511 40"><g transform="translate(-147 -37)"><rect width="47.511" height="40" transform="translate(147 37)" fill="#ff8200"/><g transform="translate(156.439 46.475)"><path d="M173.059,47.422l-2.512.053-.245.8-1.513.034-.106.3a18.876,18.876,0,0,0-9.648,3.323l8.575-.329-.211.687,2.217-.048L166.09,68.312l3.058-.978,2.946-15.151,1.678-.037.209-.765,10.925-.3a25.389,25.389,0,0,0-10.144-2.546l.1-.365-1.962.044Z" transform="translate(-157.533 -47.422)" fill="#fff"/><path d="M158.13,54.418l-.747,2.868,1.661-.079-1.433,5.665c-.631,2.92.522,4.9,2.367,5.052,1.623.137,4.392-.438,5.215-3,.818-2.537,2.761-10.859,2.761-10.859l-3.258.121L162.721,62.7c-.32,1.174-.89,1.79-1.316,1.646s-.482-.685-.164-2.024,1.937-8.1,1.937-8.1Z" transform="translate(-157.383 -48.026)" fill="#fff"/></g><path d="M174.294,53.85l-.514,2.774.812-.029-.978,5-.829.129-.726,3.716L179.5,63.5l.494-2.734-3.523.443.151-.99,1.689-.207.493-2.8-1.63.129.142-.912,2.52-.186.429-2.607Z" transform="translate(-2.278 -1.512)" fill="#fff"/><g transform="translate(169.606 51.853)"><path d="M184.576,57.553l.275-1.841,1.278-.077a2.672,2.672,0,0,1-1.554,1.918m3.514-4.215-5.96.223-.419,2.555.894-.078-1.2,7.194,2.315-.6.553-2.977c3.727-1.035,3.836-5.812,3.821-6.316" transform="translate(-172.734 -53.338)" fill="#fff"/><path d="M172.371,68.071a.793.793,0,0,1,.122-.162v-.034c-.039-.039-.067-.062-.122.02h-.054v.175Zm.085-.009.1.184h-.046l-.086-.175h-.105v.175h-.175v-.525h.228c.119,0,.174.05.179.142a.245.245,0,0,1,0,.036.148.148,0,0,1-.095.143m.26-.054a.368.368,0,1,0-.369.384.376.376,0,0,0,.369-.384m.112,0a.48.48,0,1,1-.481-.479.48.48,0,0,1,.481.479" transform="translate(-171.867 -54.626)" fill="#fff"/></g></g></svg>